<svg width="46" height="46" viewBox="0 0 46 46" fill="none" xmlns="http://www.w3.org/2000/svg">
<path opacity="0.2" d="M41.6875 23C41.6875 25.2479 38.4855 26.9441 37.6122 29.0537C36.7713 31.0877 37.8673 34.5611 36.2142 36.2142C34.5611 37.8673 31.0877 36.7713 29.0537 37.6122C26.9531 38.4855 25.2461 41.6875 23 41.6875C20.7539 41.6875 19.0469 38.4855 16.9463 37.6122C14.9123 36.7713 11.4389 37.8673 9.78578 36.2142C8.13266 34.5611 9.22875 31.0877 8.38781 29.0537C7.51453 26.9531 4.3125 25.2461 4.3125 23C4.3125 20.7539 7.51453 19.0469 8.38781 16.9463C9.22875 14.9141 8.13266 11.4389 9.78578 9.78578C11.4389 8.13266 14.9141 9.22875 16.9463 8.38781C19.0559 7.51453 20.7539 4.3125 23 4.3125C25.2461 4.3125 26.9531 7.51453 29.0537 8.38781C31.0877 9.22875 34.5611 8.13266 36.2142 9.78578C37.8673 11.4389 36.7713 14.9123 37.6122 16.9463C38.4855 19.0559 41.6875 20.7539 41.6875 23Z" fill="#3DBC81"/>
<path d="M40.5842 18.4755C39.9068 17.7675 39.206 17.038 38.9419 16.3965C38.6975 15.8089 38.6831 14.835 38.6688 13.8916C38.6418 12.1379 38.613 10.1505 37.2313 8.76875C35.8495 7.38695 33.8621 7.3582 32.1084 7.33125C31.165 7.31687 30.1911 7.3025 29.6035 7.05812C28.9638 6.79398 28.2325 6.0932 27.5245 5.41578C26.2847 4.22445 24.8759 2.875 23 2.875C21.1241 2.875 19.7171 4.22445 18.4755 5.41578C17.7675 6.0932 17.038 6.79398 16.3965 7.05812C15.8125 7.3025 14.835 7.31687 13.8916 7.33125C12.1379 7.3582 10.1505 7.38695 8.76875 8.76875C7.38695 10.1505 7.36719 12.1379 7.33125 13.8916C7.31687 14.835 7.3025 15.8089 7.05812 16.3965C6.79398 17.0362 6.0932 17.7675 5.41578 18.4755C4.22445 19.7153 2.875 21.1241 2.875 23C2.875 24.8759 4.22445 26.2829 5.41578 27.5245C6.0932 28.2325 6.79398 28.962 7.05812 29.6035C7.3025 30.1911 7.31687 31.165 7.33125 32.1084C7.3582 33.8621 7.38695 35.8495 8.76875 37.2313C10.1505 38.613 12.1379 38.6418 13.8916 38.6688C14.835 38.6831 15.8089 38.6975 16.3965 38.9419C17.0362 39.206 17.7675 39.9068 18.4755 40.5842C19.7153 41.7755 21.1241 43.125 23 43.125C24.8759 43.125 26.2829 41.7755 27.5245 40.5842C28.2325 39.9068 28.962 39.206 29.6035 38.9419C30.1911 38.6975 31.165 38.6831 32.1084 38.6688C33.8621 38.6418 35.8495 38.613 37.2313 37.2313C38.613 35.8495 38.6418 33.8621 38.6688 32.1084C38.6831 31.165 38.6975 30.1911 38.9419 29.6035C39.206 28.9638 39.9068 28.2325 40.5842 27.5245C41.7755 26.2847 43.125 24.8759 43.125 23C43.125 21.1241 41.7755 19.7171 40.5842 18.4755ZM38.5088 25.5354C37.6481 26.4338 36.7569 27.3628 36.2843 28.5038C35.8315 29.5999 35.8117 30.8523 35.7938 32.0652C35.7758 33.323 35.756 34.6402 35.1972 35.1972C34.6384 35.7542 33.3302 35.7758 32.0652 35.7938C30.8523 35.8117 29.5999 35.8315 28.5038 36.2843C27.3628 36.7569 26.4338 37.6481 25.5354 38.5088C24.637 39.3695 23.7188 40.25 23 40.25C22.2812 40.25 21.3559 39.3659 20.4646 38.5088C19.5734 37.6517 18.6372 36.7569 17.4962 36.2843C16.4001 35.8315 15.1477 35.8117 13.9348 35.7938C12.677 35.7758 11.3598 35.756 10.8028 35.1972C10.2458 34.6384 10.2242 33.3302 10.2062 32.0652C10.1883 30.8523 10.1685 29.5999 9.7157 28.5038C9.24312 27.3628 8.35187 26.4338 7.49117 25.5354C6.63047 24.637 5.75 23.7188 5.75 23C5.75 22.2812 6.63406 21.3559 7.49117 20.4646C8.34828 19.5734 9.24312 18.6372 9.7157 17.4962C10.1685 16.4001 10.1883 15.1477 10.2062 13.9348C10.2242 12.677 10.244 11.3598 10.8028 10.8028C11.3616 10.2458 12.6698 10.2242 13.9348 10.2062C15.1477 10.1883 16.4001 10.1685 17.4962 9.7157C18.6372 9.24312 19.5662 8.35187 20.4646 7.49117C21.363 6.63047 22.2812 5.75 23 5.75C23.7188 5.75 24.6441 6.63406 25.5354 7.49117C26.4266 8.34828 27.3628 9.24312 28.5038 9.7157C29.5999 10.1685 30.8523 10.1883 32.0652 10.2062C33.323 10.2242 34.6402 10.244 35.1972 10.8028C35.7542 11.3616 35.7758 12.6698 35.7938 13.9348C35.8117 15.1477 35.8315 16.4001 36.2843 17.4962C36.7569 18.6372 37.6481 19.5662 38.5088 20.4646C39.3695 21.363 40.25 22.2812 40.25 23C40.25 23.7188 39.3659 24.6441 38.5088 25.5354ZM31.2045 17.6705C31.3382 17.804 31.4442 17.9625 31.5166 18.137C31.5889 18.3115 31.6261 18.4986 31.6261 18.6875C31.6261 18.8764 31.5889 19.0635 31.5166 19.238C31.4442 19.4125 31.3382 19.571 31.2045 19.7045L21.142 29.767C21.0085 29.9007 20.85 30.0067 20.6755 30.0791C20.501 30.1514 20.3139 30.1886 20.125 30.1886C19.9361 30.1886 19.749 30.1514 19.5745 30.0791C19.4 30.0067 19.2415 29.9007 19.108 29.767L14.7955 25.4545C14.5257 25.1848 14.3742 24.819 14.3742 24.4375C14.3742 24.056 14.5257 23.6902 14.7955 23.4205C15.0652 23.1507 15.431 22.9992 15.8125 22.9992C16.194 22.9992 16.5598 23.1507 16.8295 23.4205L20.125 26.7177L29.1705 17.6705C29.304 17.5368 29.4625 17.4308 29.637 17.3584C29.8115 17.2861 29.9986 17.2489 30.1875 17.2489C30.3764 17.2489 30.5635 17.2861 30.738 17.3584C30.9125 17.4308 31.071 17.5368 31.2045 17.6705Z" fill="#3DBC81"/>
</svg>
