<svg width="48" height="48" viewBox="0 0 48 48" fill="none" xmlns="http://www.w3.org/2000/svg">
<path d="M34 5C28.48 5 24 9.48 24 15C24 20.52 28.48 25 34 25C39.52 25 44 20.52 44 15C44 9.48 39.52 5 34 5ZM35 17H33V9H35V17ZM35 19V21H33V19H35ZM10 30C10 28.34 11.34 27 13 27C14.66 27 16 28.34 16 30C16 31.66 14.66 33 13 33C11.34 33 10 31.66 10 30ZM36 28.86C37.3 28.68 38.68 28.3 40 27.66V41C40 42.1 39.1 43 38 43H36C34.9 43 34 42.1 34 41V39H10V41C10 42.1 9.1 43 8 43H6C4.9 43 4 42.1 4 41V25L8.16 13.02C8.58 11.84 9.68 11 11 11H20.58C20.2 12.26 20 13.62 20 15H11.7L9.62 21H21.34C22.06 22.5 23.02 23.86 24.2 25H8V35H36V28.86ZM33.82 29C32.04 28.98 30.34 28.62 28.76 27.98C28.3 28.52 28 29.22 28 30C28 31.66 29.34 33 31 33C32.66 33 34 31.66 34 30C34 29.64 33.94 29.32 33.82 29Z" fill="#3DBC81"/>
</svg>
