<svg width="40" height="40" viewBox="0 0 40 40" fill="none" xmlns="http://www.w3.org/2000/svg">
<g clip-path="url(#clip0_1_6733)">
<path d="M5.98413 33.0086H26.3303C27.5659 33.0086 28.4743 31.8506 28.1803 30.6506L26.4794 23.7104C26.2821 22.9054 25.8758 22.1668 25.3016 21.5692C24.7274 20.9715 24.0057 20.5361 23.2092 20.3068L14.7684 17.8756L6.71186 8.01391C6.3448 7.56461 5.88244 7.20255 5.35825 6.95393C4.83405 6.7053 4.26114 6.57633 3.68097 6.57635H1.0228V33.0086H5.98413Z" fill="#3DBC81"/>
<path d="M8.36228 37.2111C12.0772 37.2111 15.0888 34.1995 15.0888 30.4846C15.0888 26.7697 12.0772 23.7581 8.36228 23.7581C4.64734 23.7581 1.63579 26.7697 1.63579 30.4846C1.63579 34.1995 4.64734 37.2111 8.36228 37.2111Z" fill="#5A5555"/>
<path d="M3.21254 30.4311C3.24226 27.5921 5.5762 25.3062 8.41525 25.3359C11.2543 25.3656 13.5402 27.6996 13.5104 30.5386C13.4807 33.3777 11.1468 35.6636 8.30773 35.6338C5.46868 35.6041 3.18365 33.27 3.21254 30.4311ZM3.94449 30.4387C3.91919 32.8743 5.87977 34.8764 8.31532 34.9019C10.7509 34.9274 12.753 32.9666 12.7785 30.531C12.804 28.0955 10.8432 26.0934 8.40766 26.0679C5.97211 26.0424 3.97147 28.0032 3.94533 30.4387H3.94449Z" fill="white"/>
<path d="M8.02203 35.1766L8.1177 25.6103L8.84965 25.6176L8.75398 35.184L8.02203 35.1766Z" fill="white"/>
<path d="M3.64926 30.7153L3.65658 29.9834L13.223 30.079L13.2156 30.811L3.64926 30.7153Z" fill="white"/>
<path d="M4.83406 27.2355L5.35667 26.7232L12.0533 33.5537L11.5307 34.0661L4.83406 27.2355Z" fill="white"/>
<path d="M4.77231 33.4813L11.6029 26.7846L12.1152 27.3073L5.28467 34.0039L4.77231 33.4813Z" fill="white"/>
<path d="M8.36227 31.98C9.18776 31.98 9.85695 31.3108 9.85695 30.4853C9.85695 29.6598 9.18776 28.9906 8.36227 28.9906C7.53678 28.9906 6.86758 29.6598 6.86758 30.4853C6.86758 31.3108 7.53678 31.98 8.36227 31.98Z" fill="white"/>
<path d="M1.0228 7.51978V19.2411H13.5115L5.08057 8.21863C4.91441 8.0013 4.7004 7.82519 4.45514 7.70399C4.20989 7.58279 3.93999 7.51975 3.66642 7.51978H1.0228Z" fill="#E3E3E3"/>
<path d="M25.7154 22.0643H21.7672C21.7672 22.0643 22.4233 24.3283 23.3848 24.7872C24.3463 25.2462 26.7964 25.0037 26.7964 25.0037C26.7964 25.0037 26.4779 23.0063 25.7154 22.0643Z" fill="white"/>
<path d="M9.86684 15.7699L7.71489 15.6687C6.91918 15.6312 6.24379 16.2459 6.20636 17.0416L6.19095 17.3691C6.15351 18.1648 6.76821 18.8402 7.56391 18.8777L9.71587 18.9789C10.5116 19.0163 11.187 18.4016 11.2244 17.6059L11.2398 17.2784C11.2772 16.4827 10.6625 15.8074 9.86684 15.7699Z" fill="#3DBC81"/>
<path d="M10.4688 17.1315L13.7815 19.3827L13.2798 20.1211L9.96707 17.8699L10.4688 17.1315Z" fill="#3DBC81"/>
<path d="M27.8358 29.2434L25.7601 29.4268L25.7411 26.0681H27.0577C27.3167 27.1263 27.5761 28.1848 27.8358 29.2434Z" fill="#68003C"/>
<path d="M32.888 11.8406L30.7684 11.6512L31.1283 7.62348L33.248 7.81289L32.888 11.8406Z" fill="#F9BB98"/>
<path d="M32.4959 3.82339C32.1271 3.76462 31.7497 3.79124 31.3928 3.90121C31.0359 4.01117 30.709 4.20155 30.4372 4.45769C30.1654 4.71384 29.956 5.02892 29.8251 5.37869C29.6942 5.72846 29.6453 6.1036 29.6821 6.47524L29.7823 8.37489C29.8187 9.06911 30.3021 9.67647 30.9148 9.8272C31.0002 9.84795 31.0873 9.86065 31.1751 9.86515C31.2202 9.86958 31.2664 9.87295 31.3145 9.87316C32.2513 9.87948 32.9213 9.01261 33.2961 8.52795C33.3594 8.44573 33.4306 8.34812 33.5044 8.23597C33.9039 7.95818 34.2112 7.5673 34.3868 7.11354C34.5624 6.65978 34.5983 6.16388 34.4899 5.68955C34.3815 5.21523 34.1337 4.78416 33.7784 4.45173C33.4231 4.1193 32.9766 3.9007 32.4961 3.82402L32.4959 3.82339Z" fill="#F9BB98"/>
<path d="M31.2718 8.3338C31.2698 8.33401 31.2677 8.33401 31.2657 8.3338L30.9752 8.29163C30.9536 8.2885 30.9329 8.28052 30.9148 8.26829C30.8967 8.25606 30.8816 8.2399 30.8706 8.221C30.8596 8.20211 30.853 8.18098 30.8513 8.15918C30.8497 8.13739 30.853 8.1155 30.8609 8.09515L31.162 7.3261C31.1664 7.31617 31.1744 7.30832 31.1845 7.30419C31.1945 7.30006 31.2058 7.29997 31.2159 7.30394C31.226 7.30791 31.2342 7.31563 31.2388 7.3255C31.2433 7.33536 31.2439 7.3466 31.2404 7.35688L30.9396 8.12593C30.9361 8.13444 30.9347 8.14361 30.9354 8.15275C30.9361 8.16189 30.9389 8.17075 30.9436 8.17864C30.9481 8.18653 30.9544 8.19328 30.962 8.19839C30.9696 8.2035 30.9782 8.20684 30.9872 8.20815L31.2779 8.25031C31.2891 8.25113 31.2995 8.25634 31.3068 8.26483C31.3142 8.27331 31.3178 8.28435 31.317 8.29553C31.3162 8.30672 31.311 8.31712 31.3025 8.32445C31.294 8.33179 31.283 8.33545 31.2718 8.33464V8.3338Z" fill="#262246"/>
<path d="M30.5168 6.91765C30.4763 6.91116 30.4347 6.91683 30.3975 6.93394C30.3602 6.95106 30.3288 6.97884 30.3073 7.01379C30.2858 7.04874 30.2751 7.08928 30.2767 7.13028C30.2782 7.17128 30.2919 7.2109 30.316 7.24414C30.34 7.27737 30.3734 7.30272 30.4119 7.31699C30.4503 7.33125 30.4922 7.33378 30.5321 7.32427C30.572 7.31475 30.6082 7.29361 30.6361 7.26353C30.664 7.23344 30.6823 7.19576 30.6888 7.15524C30.6974 7.10093 30.6842 7.04542 30.6519 7.00088C30.6197 6.95633 30.5711 6.9264 30.5168 6.91765Z" fill="#262246"/>
<path d="M32.0732 7.16624C32.0327 7.15976 31.9911 7.16543 31.9539 7.18254C31.9166 7.19965 31.8852 7.22743 31.8637 7.26237C31.8422 7.2973 31.8316 7.33783 31.8331 7.37882C31.8346 7.41981 31.8483 7.45943 31.8723 7.49266C31.8964 7.5259 31.9297 7.55126 31.9682 7.56554C32.0066 7.57982 32.0484 7.58238 32.0884 7.5729C32.1283 7.56341 32.1645 7.54231 32.1924 7.51225C32.2203 7.4822 32.2387 7.44454 32.2452 7.40404C32.2538 7.34971 32.2406 7.29417 32.2083 7.24959C32.1761 7.20502 32.1275 7.17505 32.0732 7.16624Z" fill="#262246"/>
<path d="M32.6662 6.71591C32.4671 6.45577 32.0991 6.48697 32.0375 6.49224C31.9854 6.49666 31.8088 6.51332 31.7881 6.59237C31.7763 6.6377 31.8204 6.6845 31.8223 6.6864C31.9182 6.78611 32.0898 6.65246 32.3145 6.69125C32.5751 6.73594 32.7085 6.97838 32.7501 6.94422C32.7777 6.92272 32.7338 6.80445 32.6662 6.71591Z" fill="#262246"/>
<path d="M30.7449 6.27779C30.6882 6.25291 30.3503 6.10429 30.0775 6.28622C29.9851 6.34799 29.9052 6.4456 29.9242 6.47595C29.9527 6.52128 30.1572 6.33492 30.4184 6.37687C30.6435 6.41292 30.7626 6.59507 30.8857 6.53161C30.8881 6.53161 30.9448 6.50041 30.949 6.45361C30.9557 6.37097 30.793 6.29887 30.7449 6.27779Z" fill="#262246"/>
<path d="M31.2554 9.92813C31.1556 9.92813 31.056 9.9186 30.9579 9.89967C30.9522 9.89897 30.9467 9.8971 30.9417 9.89417C30.9367 9.89124 30.9324 9.88732 30.929 9.88266C30.9256 9.87799 30.9232 9.87268 30.9219 9.86704C30.9207 9.86141 30.9206 9.85557 30.9217 9.8499C30.9228 9.84423 30.925 9.83884 30.9282 9.83407C30.9315 9.8293 30.9357 9.82525 30.9406 9.82217C30.9455 9.81909 30.9509 9.81704 30.9566 9.81616C30.9623 9.81528 30.9682 9.81557 30.9737 9.81703C31.2123 9.86319 31.4585 9.8498 31.6907 9.77805C31.9228 9.70631 32.1337 9.57843 32.3046 9.40573C32.3084 9.40148 32.3131 9.39805 32.3183 9.39564C32.3234 9.39324 32.329 9.39191 32.3348 9.39174C32.3405 9.39157 32.3461 9.39256 32.3515 9.39466C32.3568 9.39675 32.3616 9.3999 32.3657 9.40391C32.3697 9.40793 32.3729 9.41273 32.3751 9.41802C32.3772 9.42331 32.3783 9.42899 32.3782 9.43469C32.3781 9.4404 32.3768 9.44603 32.3744 9.45124C32.3721 9.45644 32.3687 9.46111 32.3645 9.46497C32.2194 9.61191 32.0467 9.72858 31.8562 9.8082C31.6657 9.88781 31.4612 9.9288 31.2548 9.92877L31.2554 9.92813Z" fill="#68003C"/>
<path d="M34.8323 27.1951L36.9405 32.7607C37.1555 34.9287 37.3704 37.0966 37.5852 39.2645H31.0855L30.5585 34.8041C30.147 36.2911 29.7353 37.7779 29.3235 39.2645H22.1383L26.1788 26.7238L34.8323 27.1951Z" fill="#68003C"/>
<path d="M31.8604 10.873H28.0868C27.3137 10.873 26.5599 11.1149 25.9312 11.5648C25.3024 12.0146 24.8301 12.65 24.5805 13.3817L20.4064 25.6233L23.8328 27.8013C25.2701 23.4859 26.7076 19.1705 28.1452 14.8551L31.8604 10.873Z" fill="#F9BB98"/>
<path d="M26.2311 11.4327L31.8599 10.873L37.5915 12.4914L35.0877 28.1078L26.5054 27.5409L26.2311 11.4327Z" fill="#ABE4C9"/>
<path d="M19.014 12.8869C20.6642 17.5248 22.3144 22.1633 23.9645 26.8024C24.0609 28.0011 23.2267 29.091 22.0444 29.3111C20.8622 29.5312 19.6959 28.8136 19.3542 27.6619C18.4093 23.2448 17.4646 18.8275 16.52 14.4103L19.014 12.8869Z" fill="#F9BB98"/>
<path d="M31.8608 10.8734L27.5281 10.564C26.8509 10.5158 26.1776 10.7009 25.6201 11.0885C25.0627 11.4761 24.6547 12.0428 24.4641 12.6945L22.3756 19.8493L26.1338 21.6923L27.7813 14.7775L31.8608 10.8734Z" fill="#ABE4C9"/>
<path d="M26.169 16.603C26.0402 19.4749 25.776 22.5969 25.3125 25.9244C24.9166 28.7653 24.4226 31.4178 23.8774 33.8656C25.3768 34.693 27.3559 35.4286 29.2001 34.7803C31.989 33.8 32.648 30.3043 34.3847 30.3829C35.0488 30.4129 35.9778 30.9829 37.0199 33.5677L37.2337 33.0105C37.4757 32.3787 37.5097 31.686 37.3306 31.0335C36.944 29.6244 36.5575 28.2152 36.1711 26.806L36.8137 18.6289L26.169 16.603Z" fill="#ABE4C9"/>
<path d="M31.8607 10.873L35.9898 11.7542C36.6794 11.9014 37.3141 12.2384 37.8222 12.7273C38.3304 13.2161 38.6918 13.8373 38.8655 14.5207L40.9876 22.8665C41.061 23.1552 41.0189 23.4611 40.8704 23.7192L36.0005 32.1782C35.901 32.1757 35.2038 32.1457 34.7356 31.5548C34.3431 31.0605 34.3751 30.5083 34.3857 30.3827L37.4815 22.8673L34.4131 14.3228L31.8607 10.873Z" fill="#F9BB98"/>
<path d="M31.8607 10.873L35.9128 11.5242C36.68 11.6475 37.3924 11.9984 37.9578 12.5314C38.5232 13.0643 38.9155 13.7548 39.0839 14.5133L40.5927 21.3136L36.813 22.4853L34.7611 15.7966L31.8607 10.873Z" fill="#ABE4C9"/>
<path d="M30.8437 10.7988C30.8437 10.7988 30.8916 11.5038 31.7161 11.7367C32.5406 11.9697 32.9565 11.0664 32.9565 11.0664L32.0401 10.4139L30.8437 10.7988Z" fill="#F9BB98"/>
<path d="M33.2468 7.81344L33.392 6.54433C33.392 6.54433 32.2975 6.46358 32.5342 5.17403C32.771 3.88447 32.2068 5.48477 31.459 5.39243C30.7113 5.30009 30.6915 4.95562 30.6915 4.95562C30.5439 5.4561 30.1465 5.80942 29.7006 5.848C29.0587 5.90345 28.6676 5.27606 28.6206 5.19911C28.2201 4.55739 28.2934 3.45757 29.0907 2.93179C29.7635 2.48908 30.7064 2.61557 31.2716 3.2594C31.2716 3.2594 31.8027 2.40391 32.335 3.15863C32.335 3.15863 33.3737 2.83102 34.1461 3.19215C34.9185 3.55328 34.5509 4.68704 34.5509 4.68704C34.5509 4.68704 35.221 5.08169 35.1538 6.03057C35.0865 6.97945 34.6499 7.33046 34.6499 7.33046C34.6499 7.33046 34.7189 9.00138 33.1015 9.43482L33.2468 7.81344Z" fill="#68003C"/>
<path d="M33.775 7.26882C33.5327 7.08815 33.1651 7.17163 32.9528 7.45518C32.7405 7.73872 32.7662 8.11503 33.0084 8.2957C33.2507 8.47637 33.6185 8.39267 33.8306 8.10913C34.0427 7.82558 34.0172 7.44948 33.775 7.26882Z" fill="#F9BB98"/>
<path d="M33.2072 8.14585C33.1961 8.1468 33.185 8.14327 33.1764 8.13604C33.1678 8.1288 33.1624 8.11846 33.1615 8.10727C33.1605 8.09609 33.1641 8.08499 33.1713 8.07641C33.1785 8.06783 33.1889 8.06248 33.2001 8.06153C33.2437 8.0551 33.2842 8.03494 33.3156 8.00396C33.347 7.97299 33.3678 7.93281 33.3748 7.88926C33.3819 7.84571 33.3749 7.80104 33.3548 7.76174C33.3348 7.72244 33.3027 7.69054 33.2633 7.67068C33.2544 7.66614 33.2473 7.65855 33.2434 7.64927C33.2396 7.63999 33.2391 7.62964 33.2422 7.62008C33.2454 7.61062 33.2518 7.60259 33.2604 7.59742C33.2689 7.59225 33.279 7.59027 33.2888 7.59183L33.6938 7.65655C33.6993 7.65742 33.7046 7.65937 33.7093 7.66228C33.714 7.66519 33.7181 7.66901 33.7214 7.67352C33.7246 7.67802 33.727 7.68313 33.7282 7.68854C33.7295 7.69395 33.7297 7.69955 33.7288 7.70504C33.727 7.71604 33.7209 7.72588 33.7118 7.7324C33.7028 7.73892 33.6915 7.74159 33.6805 7.73982L33.4119 7.69766C33.4389 7.73827 33.4552 7.78502 33.4594 7.8336C33.4635 7.88217 33.4554 7.93101 33.4357 7.97561C33.416 8.0202 33.3854 8.05912 33.3466 8.08876C33.3079 8.1184 33.2624 8.13782 33.2142 8.14522L33.2072 8.14585Z" fill="#262246"/>
<path d="M25.848 21.3316H25.843C25.8375 21.331 25.8322 21.3292 25.8273 21.3265C25.8225 21.3238 25.8183 21.3201 25.8149 21.3157C25.8115 21.3114 25.809 21.3064 25.8075 21.301C25.806 21.2957 25.8056 21.2901 25.8063 21.2846L26.7569 13.4743C26.7575 13.4688 26.7592 13.4635 26.762 13.4587C26.7647 13.4538 26.7683 13.4496 26.7727 13.4461C26.7771 13.4427 26.7821 13.4402 26.7874 13.4387C26.7928 13.4372 26.7984 13.4368 26.8039 13.4374C26.8094 13.4381 26.8147 13.4399 26.8195 13.4426C26.8243 13.4453 26.8285 13.449 26.8319 13.4534C26.8353 13.4577 26.8379 13.4627 26.8393 13.4681C26.8408 13.4734 26.8412 13.479 26.8405 13.4845L25.89 21.2956C25.8885 21.3057 25.8834 21.3148 25.8757 21.3215C25.868 21.3281 25.8582 21.3317 25.848 21.3316Z" fill="#68003C"/>
<path d="M36.5697 21.7344H36.5665C36.561 21.734 36.5556 21.7325 36.5506 21.7301C36.5457 21.7276 36.5413 21.7241 36.5377 21.7199C36.534 21.7158 36.5313 21.7109 36.5295 21.7056C36.5278 21.7004 36.5271 21.6948 36.5275 21.6893L37.0356 14.736C37.0364 14.7249 37.0417 14.7145 37.0501 14.7073C37.0586 14.7 37.0696 14.6964 37.0807 14.6972C37.0862 14.6976 37.0916 14.6991 37.0965 14.7016C37.1015 14.704 37.1059 14.7075 37.1095 14.7117C37.1131 14.7159 37.1159 14.7207 37.1177 14.726C37.1194 14.7312 37.1201 14.7368 37.1197 14.7423L36.6116 21.6963C36.6106 21.7067 36.6058 21.7164 36.598 21.7235C36.5903 21.7305 36.5801 21.7344 36.5697 21.7344Z" fill="#68003C"/>
<path d="M19.4168 14.978L19.9544 12.9894L20.979 12.3548C21.1951 12.1048 21.2138 11.7498 21.0376 11.5067C20.8984 11.3147 20.6547 11.2162 20.4064 11.2464L19.4168 11.6149L18.3387 10.4056L16.0408 12.4377L17.0823 14.1972L19.4168 14.978Z" fill="#F9BB98"/>
<path d="M19.7541 14.1133C19.5248 14.1136 19.2994 14.0543 19.0998 13.9414C18.9003 13.8285 18.7335 13.6657 18.6157 13.469C18.4654 13.2181 18.4024 12.9244 18.4365 12.6339C18.4705 12.3434 18.5998 12.0723 18.8041 11.863C19.0083 11.6536 19.2762 11.5177 19.5657 11.4765C19.8553 11.4353 20.1504 11.4911 20.405 11.6352C20.6596 11.7792 20.8593 12.0035 20.9731 12.273C21.0868 12.5424 21.1082 12.842 21.0339 13.1249C20.9596 13.4078 20.7938 13.6582 20.5622 13.837C20.3307 14.0158 20.0466 14.1129 19.7541 14.1133ZM18.7601 13.3826C18.8973 13.6121 19.1098 13.7869 19.3614 13.8772C19.6131 13.9676 19.8883 13.9679 20.1401 13.8781C20.392 13.7883 20.6049 13.614 20.7426 13.3848C20.8803 13.1556 20.9343 12.8858 20.8954 12.6213C20.8564 12.3567 20.727 12.1139 20.5291 11.9341C20.3312 11.7543 20.077 11.6487 19.81 11.6353C19.543 11.6219 19.2795 11.7015 19.0646 11.8605C18.8497 12.0196 18.6965 12.2482 18.6313 12.5075C18.5566 12.8047 18.6029 13.1195 18.7601 13.3826Z" fill="#68003C"/>
<path d="M19.6598 15.291L19.6887 17.0258L19.6931 17.295C19.6934 17.3114 19.6903 17.3277 19.6841 17.3428C19.6778 17.358 19.6686 17.3717 19.6568 17.3831L19.5765 17.4614L19.6961 17.5879C19.6992 17.7375 19.7015 17.8408 19.7047 17.9909L19.6088 18.101L19.71 18.3162C19.6746 18.4749 19.5824 18.6153 19.4509 18.7109C19.3833 18.6688 19.3258 18.6125 19.2826 18.5457C19.2393 18.4789 19.2112 18.4035 19.2004 18.3247L19.15 15.2994L19.6598 15.291Z" fill="white"/>
<path d="M19.4439 18.3462L19.3644 18.3485L19.2897 15.7713L19.3692 15.769L19.4439 18.3462Z" fill="#68003C"/>
<path d="M18.377 13.9505L18.4021 15.4652C18.4027 15.4979 18.4097 15.5301 18.4227 15.56C18.4357 15.59 18.4545 15.617 18.478 15.6397C18.5015 15.6624 18.5292 15.6802 18.5596 15.6922C18.59 15.7041 18.6224 15.71 18.6551 15.7094L20.1698 15.6841C20.2024 15.6836 20.2347 15.6766 20.2646 15.6636C20.2946 15.6506 20.3217 15.6318 20.3443 15.6083C20.367 15.5848 20.3848 15.557 20.3967 15.5266C20.4086 15.4962 20.4144 15.4637 20.4137 15.4311L20.388 13.917C20.3874 13.8844 20.3804 13.8522 20.3674 13.8222C20.3544 13.7923 20.3356 13.7652 20.3121 13.7425C20.2886 13.7199 20.2609 13.7021 20.2305 13.6901C20.2001 13.6782 20.1677 13.6723 20.135 13.6729L18.6203 13.6982C18.5546 13.6994 18.492 13.7267 18.4464 13.774C18.4008 13.8213 18.3758 13.8848 18.377 13.9505ZM18.8659 14.077C18.8653 14.0392 18.8797 14.0026 18.906 13.9753C18.9324 13.9481 18.9684 13.9324 19.0063 13.9318L19.7583 13.9193C19.7774 13.9183 19.7966 13.9212 19.8146 13.9278C19.8327 13.9344 19.8492 13.9445 19.8632 13.9576C19.8772 13.9707 19.8885 13.9865 19.8962 14.004C19.904 14.0216 19.9082 14.0405 19.9085 14.0597C19.9089 14.0788 19.9053 14.0979 19.8981 14.1157C19.8909 14.1335 19.8802 14.1496 19.8667 14.1632C19.8531 14.1767 19.8369 14.1874 19.8192 14.1946C19.8014 14.2018 19.7823 14.2053 19.7631 14.205L19.0109 14.2174C18.9732 14.218 18.9367 14.2037 18.9095 14.1774C18.8823 14.1512 18.8666 14.1152 18.8659 14.0774V14.077Z" fill="#ABE4C9"/>
<path d="M22.2382 16.6553L22.9891 15.9528C23.1886 15.7661 23.199 15.453 23.0123 15.2534L21.2351 13.3539C21.0484 13.1543 20.7352 13.1439 20.5357 13.3306L19.7848 14.0331C19.5852 14.2198 19.5748 14.533 19.7615 14.7325L21.5388 16.6321C21.7255 16.8316 22.0386 16.8421 22.2382 16.6553Z" fill="#3DBC81"/>
<path d="M20.6287 14.8029L21.2471 14.2243C21.3092 14.1662 21.3125 14.0687 21.2543 14.0066L21.103 13.8448C21.0449 13.7827 20.9474 13.7795 20.8853 13.8376L20.2669 14.4161C20.2048 14.4743 20.2015 14.5718 20.2597 14.6339L20.411 14.7956C20.4691 14.8578 20.5666 14.861 20.6287 14.8029Z" fill="#ABE4C9"/>
<path d="M21.2948 15.5142L21.9131 14.9356C21.9752 14.8775 21.9785 14.78 21.9203 14.7179L21.769 14.5561C21.7109 14.494 21.6134 14.4908 21.5513 14.5489L20.9329 15.1274C20.8708 15.1856 20.8675 15.2831 20.9257 15.3452L21.077 15.5069C21.1351 15.5691 21.2326 15.5723 21.2948 15.5142Z" fill="#ABE4C9"/>
<path d="M21.9602 16.2249L22.5786 15.6464C22.6407 15.5883 22.644 15.4908 22.5858 15.4286L22.4345 15.2669C22.3764 15.2048 22.2789 15.2015 22.2168 15.2597L21.5984 15.8382C21.5363 15.8963 21.533 15.9938 21.5912 16.0559L21.7425 16.2177C21.8006 16.2798 21.8981 16.2831 21.9602 16.2249Z" fill="#ABE4C9"/>
<path d="M20.2477 13.9854C20.2288 13.9854 20.2105 13.979 20.1957 13.9673C20.1808 13.9557 20.1703 13.9394 20.1659 13.921C20.1614 13.9027 20.1632 13.8834 20.171 13.8662C20.1788 13.849 20.1922 13.8349 20.2089 13.8262C20.8133 13.5121 20.8854 13.019 20.8882 12.9983C20.8918 12.9769 20.9036 12.9577 20.9211 12.9447C20.9385 12.9318 20.9603 12.926 20.9819 12.9288C21.0034 12.9315 21.0231 12.9424 21.0368 12.9593C21.0505 12.9762 21.0572 12.9977 21.0554 13.0194C21.0524 13.0439 20.9729 13.6192 20.2865 13.9759C20.2746 13.9822 20.2612 13.9854 20.2477 13.9854Z" fill="#68003C"/>
<path d="M17.1438 14.9639L15.6382 13.6067C15.4377 13.426 15.3018 13.1847 15.2512 12.9196C15.2005 12.6546 15.2379 12.3802 15.3576 12.1383L16.2194 10.3981C16.295 10.2448 16.4038 10.1103 16.5378 10.0043C16.6718 9.89819 16.8276 9.82323 16.9942 9.78479L18.5211 9.43315C18.6637 9.40028 18.8132 9.41602 18.9459 9.47786C19.0785 9.5397 19.1867 9.64409 19.2532 9.77446C19.5584 10.3719 19.8633 10.9692 20.168 11.5664C20.2101 11.7283 20.1619 11.8976 20.044 12.0007C19.8964 12.1307 19.6584 12.1356 19.4856 12.0007L18.5445 10.9548L19.4856 12.0017C19.5103 12.0986 19.507 12.2006 19.4758 12.2957C19.4447 12.3907 19.3871 12.4749 19.3098 12.5384C19.2325 12.6019 19.1387 12.642 19.0394 12.6541C18.9401 12.6662 18.8394 12.6497 18.7492 12.6066L17.935 11.9163L18.8204 12.6407C18.8739 12.8035 18.8606 12.9808 18.7836 13.1338C18.6537 13.384 18.4056 13.4479 18.3687 13.4568L17.0353 12.6407L18.1557 13.4713C18.3217 13.6781 18.301 13.9747 18.1207 14.1459C17.9593 14.2994 17.7016 14.3217 17.5043 14.1923L17.1438 14.9639Z" fill="#F9BB98"/>
<path d="M18.2199 13.9098C18.1471 13.9088 18.0753 13.8926 18.0091 13.8622L16.7929 13.3168H16.2659C16.2547 13.3168 16.244 13.3124 16.2361 13.3044C16.2282 13.2965 16.2237 13.2858 16.2237 13.2746C16.2237 13.2635 16.2282 13.2527 16.2361 13.2448C16.244 13.2369 16.2547 13.2325 16.2659 13.2325H16.8009C16.8069 13.2325 16.8128 13.2338 16.8182 13.2363L18.0435 13.7857C18.0728 13.7994 18.221 13.863 18.3475 13.7947C18.478 13.7243 18.5615 13.5167 18.4723 13.301L17.3522 12.4008C17.2167 12.292 17.0481 12.2325 16.8743 12.2322H16.2271C16.2159 12.2322 16.2052 12.2277 16.1973 12.2198C16.1894 12.2119 16.1849 12.2012 16.1849 12.19C16.1849 12.1788 16.1894 12.1681 16.1973 12.1602C16.2052 12.1523 16.2159 12.1478 16.2271 12.1478H16.8743C17.068 12.148 17.2559 12.2142 17.4068 12.3357L18.5353 13.2422C18.5406 13.2465 18.5447 13.252 18.5475 13.2582C18.6515 13.497 18.5821 13.7654 18.3894 13.8696C18.3372 13.8969 18.2789 13.9107 18.2199 13.9098Z" fill="#68003C"/>
<path d="M18.5086 13.3171C18.4974 13.3179 18.4864 13.3141 18.478 13.3068C18.4695 13.2994 18.4644 13.289 18.4636 13.2778C18.4628 13.2666 18.4666 13.2556 18.4739 13.2471C18.4813 13.2387 18.4917 13.2335 18.5029 13.2328C18.5983 13.2212 18.6866 13.1764 18.7523 13.1063C18.8716 12.9705 18.8788 12.753 18.7698 12.5632L17.7931 11.6179C17.7254 11.5522 17.6446 11.5015 17.556 11.469C17.4675 11.4366 17.3731 11.4231 17.2789 11.4295L16.6659 11.4704C16.6547 11.4711 16.6437 11.4673 16.6353 11.4599C16.6268 11.4526 16.6217 11.4421 16.621 11.4309C16.6202 11.4198 16.624 11.4087 16.6314 11.4003C16.6388 11.3919 16.6492 11.3868 16.6604 11.386L17.2737 11.3451C17.3794 11.3379 17.4855 11.353 17.5851 11.3893C17.6847 11.4256 17.7756 11.4824 17.8519 11.5559L18.8331 12.5046C18.8358 12.5073 18.8381 12.5104 18.84 12.5137C18.9699 12.7359 18.9602 12.9956 18.816 13.16C18.7369 13.2453 18.6303 13.3 18.5149 13.3146C18.5129 13.3157 18.5108 13.3165 18.5086 13.3171Z" fill="#68003C"/>
<path d="M19.0194 12.6327C18.9373 12.6326 18.8565 12.6125 18.7839 12.5741C18.774 12.5689 18.7666 12.5599 18.7633 12.5492C18.76 12.5385 18.7611 12.527 18.7663 12.5171C18.7715 12.5072 18.7805 12.4998 18.7912 12.4965C18.8019 12.4932 18.8134 12.4942 18.8233 12.4995C18.9 12.5407 18.9878 12.5566 19.0741 12.545C19.1604 12.5334 19.2409 12.4949 19.304 12.4349C19.3671 12.3749 19.4096 12.2965 19.4255 12.2108C19.4414 12.1252 19.4299 12.0368 19.3925 11.9581L18.555 10.7008C18.4902 10.6037 18.4002 10.526 18.2947 10.4761C18.1891 10.4261 18.072 10.4058 17.9558 10.4172L17.094 10.5016C17.0828 10.5027 17.0717 10.4993 17.063 10.4921C17.0543 10.485 17.0488 10.4747 17.0477 10.4635C17.0467 10.4523 17.0501 10.4412 17.0572 10.4325C17.0643 10.4238 17.0746 10.4183 17.0858 10.4172L17.9485 10.3329C18.0799 10.3201 18.2124 10.3432 18.3317 10.3998C18.451 10.4565 18.5526 10.5445 18.6258 10.6544L19.4663 11.9168C19.5115 12.0105 19.5263 12.116 19.5089 12.2186C19.4914 12.3212 19.4425 12.4158 19.3689 12.4893C19.2759 12.5814 19.1503 12.6329 19.0194 12.6327Z" fill="#68003C"/>
<path d="M19.7684 12.1462C19.6971 12.1459 19.6268 12.1296 19.5626 12.0985C19.4984 12.0674 19.442 12.0223 19.3976 11.9666C19.3906 11.9578 19.3874 11.9467 19.3886 11.9355C19.3898 11.9244 19.3955 11.9142 19.4042 11.9072C19.413 11.9002 19.4241 11.897 19.4353 11.8983C19.4464 11.8995 19.4566 11.9051 19.4636 11.9139C19.5172 11.9841 19.5936 12.0334 19.6798 12.0531C19.7659 12.0729 19.8562 12.0619 19.9351 12.022C20.0139 11.9822 20.0763 11.916 20.1115 11.8349C20.1467 11.7539 20.1524 11.6631 20.1276 11.5783C20.1253 11.5676 20.1272 11.5565 20.1329 11.5472C20.1386 11.5379 20.1477 11.5312 20.1583 11.5284C20.1688 11.5257 20.18 11.5272 20.1895 11.5325C20.199 11.5379 20.2061 11.5467 20.2092 11.5572C20.2383 11.6656 20.2278 11.7808 20.1797 11.8822C20.1315 11.9836 20.0488 12.0645 19.9463 12.1104C19.89 12.1342 19.8295 12.1464 19.7684 12.1462Z" fill="#68003C"/>
<path d="M30.941 8.67543L31.8857 8.56201C31.8502 8.82258 31.6327 9.01168 31.3945 9.00915C31.1976 9.00725 31.0148 8.87423 30.941 8.67543Z" fill="white"/>
</g>
<defs>
<clipPath id="clip0_1_6733">
<rect width="40" height="40" fill="white"/>
</clipPath>
</defs>
</svg>
