<svg width="40" height="40" viewBox="0 0 40 40" fill="none" xmlns="http://www.w3.org/2000/svg">
<path d="M9.70588 24.0588C10.7647 23.1176 11.2941 20.9412 15.9412 17.7059C18.4706 15.9412 21.2353 14.5294 24 13.1765C24.9412 12.7059 26.1176 12.2353 27.0588 12.7647C28 12.2941 29.2941 12.7647 29.8824 13.6471C30.4706 14.5294 30.5294 15.7059 30.2941 16.7647C30 17.8235 29.4706 18.7647 28.9412 19.6471C29.8824 20.2353 30.4706 21.4118 30.3529 22.5294C30.2353 23.6471 29.5882 24.7059 28.5882 25.1765C29.2353 25.7059 29.5882 26.6471 29.4118 27.5294C29.2353 28.3529 28.5294 29.1176 27.6471 29.2941C30 31.4118 24.2941 34.4118 22.9412 35C20.5882 35.9412 14.1176 37.2941 11.1176 36.8235C5.17647 35.8823 3.88235 29.9412 7.17647 26.1176C7.76471 25.4706 8.88235 24.8235 9.70588 24.0588Z" fill="#F9BB98"/>
<path d="M29.8824 15C33.1961 15 35.8824 12.3137 35.8824 9C35.8824 5.68629 33.1961 3 29.8824 3C26.5686 3 23.8824 5.68629 23.8824 9C23.8824 12.3137 26.5686 15 29.8824 15Z" fill="black"/>
<path d="M28.8824 14.647C32.1961 14.647 34.8824 11.9607 34.8824 8.64703C34.8824 5.33333 32.1961 2.64703 28.8824 2.64703C25.5686 2.64703 22.8824 5.33333 22.8824 8.64703C22.8824 11.9607 25.5686 14.647 28.8824 14.647Z" fill="#FCE67A"/>
<path d="M28.8824 12.8235C31.189 12.8235 33.0588 10.9537 33.0588 8.64705C33.0588 6.34045 31.189 4.47058 28.8824 4.47058C26.5758 4.47058 24.7059 6.34045 24.7059 8.64705C24.7059 10.9537 26.5758 12.8235 28.8824 12.8235Z" fill="#FFDC00"/>
<path d="M27.8235 10.2352C28.5294 10.5294 29.3529 10.4705 29.4118 9.76465C29.4706 9.35288 29.2353 9.05876 28.5882 8.76465C27.7059 8.35288 27.3529 7.82347 27.4118 7.23523C27.5294 6.05876 28.9412 5.647 30.0588 6.17641C30.2353 6.23523 30.4706 6.35288 30.5294 6.52935C30.5294 6.70582 30.4118 6.88229 30.2353 6.94112C30.0588 6.99994 29.8824 6.82347 29.7647 6.76465C29.1176 6.47053 28.3529 6.52935 28.2353 7.17641C28.1176 8.17641 30.4118 8.05876 30.2353 9.76465C30.1176 11.1176 28.5294 11.3529 27.2941 10.8235C27.0588 10.7058 26.7647 10.5882 26.8235 10.2941C26.8235 10.2352 26.8824 10.1176 26.9412 10.0588C27.2941 9.94112 27.5882 10.1176 27.8235 10.2352Z" fill="white"/>
<path d="M29.1176 6.05877C29.1765 5.8823 29.2353 5.64701 29.2353 5.47054C29.2941 5.35289 29.2941 5.29407 29.4706 5.29407C29.5882 5.29407 29.7647 5.35289 29.8235 5.41171C29.8824 5.47054 29.8235 5.47054 29.7059 6.17642" fill="white"/>
<path d="M27.8824 10.7058C27.8235 10.8823 27.8235 11.1176 27.7647 11.294C27.7059 11.4117 27.7059 11.4705 27.8824 11.5882C28 11.647 28.1765 11.647 28.2353 11.5882C28.2941 11.5293 28.2941 11.5293 28.4118 10.8235" fill="white"/>
<path d="M26.4118 20.7647C26.1765 21.1177 25.9412 21.4706 25.5882 21.7059C25.2353 21.9412 24.7647 22 24.4118 21.7059C24.1176 21.4706 24 21 24.1765 20.5883C24.6471 19.5294 26.0588 19.5883 26.4118 20.7647Z" fill="white"/>
<path d="M22.9412 24.2353C23.0588 24.7059 22.5882 25.1764 22.0588 25.2941C21.5882 25.4117 21.0588 25.2353 20.5882 25.0588C20.2941 24.9412 20.7059 24 20.8235 23.8823C21.4118 23.2941 22.8235 23.3529 22.9412 24.2353Z" fill="white"/>
<path d="M22.0588 27.7059C22.1765 28.1765 21.7059 28.6471 21.1765 28.7647C20.7059 28.8824 20.1765 28.7059 19.7059 28.5294C19.4118 28.4118 19.8235 27.4706 19.9412 27.3529C20.5294 26.8235 21.9412 26.8235 22.0588 27.7059Z" fill="white"/>
<path d="M20.8823 31.353C20.8235 31.7647 20.3529 32 19.9412 31.9412C19.5294 31.8824 19.1765 31.6471 18.8823 31.353C18.7059 31.1765 19.2941 30.5883 19.4118 30.5294C19.9412 30.2353 21 30.6471 20.8823 31.353Z" fill="white"/>
<path d="M20.7647 17.1765C21.6471 16.8235 22.4118 16.1765 23.0588 15.5294C24.6471 13.7647 24.8235 12.5294 25.5294 12.5294C25.8235 12.5294 26.0588 12.7647 26.1765 13.0588C26.4118 13.5294 26.4118 14.0588 26.4118 14.5882C26.3529 15.7059 26.2353 16.8824 25.8235 17.8824C25.4118 18.8824 24.6471 19.8824 23.6471 20.3529" fill="#F9BB98"/>
<path d="M26.0588 13.3529C26.1177 13.1764 26.1765 12.9412 26.1177 12.7647C26.0588 12.5294 25.7647 12.4117 25.5294 12.4117C24.7647 12.4706 23.7059 13.8235 24.2353 14.5294C25 15.5882 25.8824 14 26.0588 13.3529Z" fill="white"/>
<path d="M20.8235 22.5294C20.7647 22.4118 20.7647 22.2353 20.9412 22.1177C22.2941 21.2941 23.8235 20.2353 24.9412 18.8236C26.7647 16.5294 26.8235 14 26.2941 13.1765C26.1177 12.9412 25.8824 12.7647 25.6471 12.7059C24.5882 12.6471 24.3529 14.8824 22.2941 16.5883C21.2941 17.4118 20.1177 17.8236 19 17.7647C18.8235 17.7647 18.7059 17.6471 18.7059 17.4706C18.7059 17.2941 18.8824 17.1765 19 17.1765C19.9412 17.2353 21 16.8236 21.8824 16.1177C23.9412 14.4118 24.0588 12 25.6471 12.1177C26.0588 12.1177 26.4706 12.4118 26.7647 12.8236C27.4118 13.8824 27.3529 16.5883 25.3529 19.1177C24.1765 20.5883 22.5882 21.7059 21.1765 22.5294C21.0588 22.7059 20.8824 22.6471 20.8235 22.5294Z" fill="black"/>
<path d="M21.5294 26.3529C20.5294 25.9411 19.7647 24.7059 20.1765 23.647C20.4706 22.9411 21.3529 22 22.2353 22C24.5294 22.0588 26.8823 21.1176 28.5294 19.4706C28.6471 19.3529 28.8235 19.3529 28.9412 19.4706C29.0588 19.5882 29.0588 19.7647 28.9412 19.8823C26 22.8823 22.1765 22.5882 22.2353 22.5882C21.7059 22.5882 21 23.2941 20.7647 23.8823C20.4706 24.647 21.0588 25.5294 21.7647 25.8235C22.5882 26.1764 23.5882 26.0588 24.4118 25.8823C25.8823 25.5882 27.2941 25.1176 28.5882 24.4706C28.7059 24.4117 28.8823 24.4706 29 24.5882C29.1176 24.7059 29 24.8823 28.8823 25C27.5294 25.647 26.0588 26.1176 24.5294 26.4117C23.5294 26.647 22.4706 26.7647 21.5294 26.3529Z" fill="black"/>
<path d="M20.9412 30.2941C20.0588 29.9412 19.4118 29.1765 19.1765 28.3529C18.9412 27.3529 19.4706 26.3529 20.3529 26.0588C20.7059 25.9412 20.8824 26.4706 20.5294 26.5882C19.9412 26.7647 19.5882 27.5294 19.7059 28.2353C19.8235 28.8823 20.3529 29.4706 21.1177 29.7647C21.7059 30 22.4118 30.0588 23.3529 30C25.0588 29.8823 26.6471 29.2941 28.1177 28.4118C28.4706 28.2353 28.7647 28.7059 28.4118 28.8823C26.8824 29.8235 25.1765 30.4118 23.4118 30.5294C22.5882 30.647 21.7059 30.647 20.9412 30.2941Z" fill="black"/>
<path d="M23.5882 34.0588C23.5294 33.9412 23.5882 33.8235 23.7059 33.7059C23.5294 33.5882 23 33.7059 21.1765 33.4118C20.5882 33.2941 20 33.1765 19.5294 32.8235C18.9412 32.4118 18.5882 31.8235 18.5882 31.2353C18.5882 30.5882 19 30 19.3529 29.5294C19.5882 29.2353 20.0588 29.5882 19.8235 29.8823C19.4706 30.3529 19.1765 30.7647 19.1765 31.2353C19.1765 31.647 19.4706 32.0588 19.8824 32.3529C20.6471 32.8823 22.4706 33.0588 23.4118 33.0588C23.5882 33.0588 23.8824 33.0588 24.1177 33.2941C24.4118 33.5882 24.3529 34.1176 24 34.2353C23.9412 34.2353 23.6471 34.1765 23.5882 34.0588Z" fill="black"/>
<path d="M23.9412 21.3529C23.6471 20.8235 23.7647 19.7059 24.2353 19.9412C24.4118 20 24.4706 20.1765 24.4118 20.3529C24.3529 20.5294 24.3529 20.8823 24.4706 21.1176C24.5882 21.3529 24.9412 21.5882 25.1176 21.647C25.2941 21.647 25.4118 21.8235 25.3529 22C25.2353 22.5294 24.2353 21.8823 23.9412 21.3529Z" fill="black"/>
<path d="M33.4706 2.52941L33.2353 1.41176C33.1765 1.23529 33.2941 1.11764 33.4706 1.05882C33.6471 0.999996 33.7647 1.11764 33.8235 1.29411L34.0588 2.41176C34.1176 2.58823 34 2.70588 33.8235 2.7647C33.6471 2.7647 33.5294 2.64706 33.4706 2.52941Z" fill="black"/>
<path d="M35.5882 3.52942C35.4706 3.4706 35.4118 3.29413 35.4706 3.11766L36.3529 1.64707C36.4118 1.52942 36.5882 1.4706 36.7647 1.52942C36.8824 1.58825 36.9412 1.76472 36.8824 1.94119L36 3.41178C35.9412 3.52942 35.7647 3.58825 35.5882 3.52942Z" fill="black"/>
<path d="M36.5294 5.05884C36.4706 4.94119 36.5294 4.76472 36.6471 4.64708C37.0588 4.47061 37.5294 4.41178 38 4.47061C38.3529 4.52943 38.2941 5.11767 37.8824 5.05884C37.5294 5.00002 37.2353 5.05884 36.9412 5.17649C36.7647 5.23531 36.5882 5.17649 36.5294 5.05884Z" fill="black"/>
<path d="M10.4706 36.2353C8.58823 33.7647 7.41176 30.647 7.17646 27.4706C7.11764 26.7059 6.35293 26.2353 5.70588 26.5882C4.64705 27.1764 3.58823 27.7647 2.58823 28.4706C2.23529 28.7059 2.05882 29.1176 2.17646 29.5294C2.82352 32.8823 3.64705 36 5.82352 38.5882C6.05882 38.8823 6.47058 39 6.88235 38.8823C7.7647 38.647 9.29411 38.2353 10.1176 37.8823C10.7647 37.7059 10.9412 36.8235 10.4706 36.2353Z" fill="#0A307E"/>
<path d="M5.70588 27C5.64706 26.8235 5.70588 26.7059 5.88235 26.5882C10.3529 24.6471 11.8824 18.4706 16.8235 16.9412C17 16.8824 17.1176 17 17.1765 17.1177C17.2353 17.2941 17.1176 17.4118 17 17.4706C12.4118 18.9412 10.5882 25.1765 6.11765 27.1765C5.94118 27.2353 5.7647 27.1765 5.70588 27Z" fill="black"/>
<path d="M8.70588 35.7059C8.29412 34.7647 6.82353 35.2941 7.17647 36.2353C7.29412 36.647 7.82353 36.8823 8.23529 36.7647C8.64706 36.647 8.88235 36.1176 8.70588 35.7059Z" fill="white"/>
<path d="M7.76471 30.7059C7.11765 29.4118 6.76471 28 6.70589 26.5882C6.70589 26.2353 7.29412 26.1765 7.29412 26.5294C7.35295 27.8824 7.70589 29.1765 8.29412 30.4118C8.35295 30.5294 8.29412 30.7059 8.17648 30.8235C8 30.9412 7.82353 30.8824 7.76471 30.7059Z" fill="black"/>
<path d="M5.82353 38.7059C3.82353 35.8823 2.41177 32.647 1.76471 29.2941C1.70588 29.1176 1.82353 29 2 28.9411C2.17647 28.8823 2.35294 29 2.35294 29.1764C3 32.4706 4.35294 35.647 6.29412 38.3529C6.41177 38.4706 6.35294 38.647 6.2353 38.7647C6.11765 38.8823 5.94118 38.8235 5.82353 38.7059Z" fill="black"/>
</svg>
