<svg width="40" height="40" viewBox="0 0 40 40" fill="none" xmlns="http://www.w3.org/2000/svg">
<path d="M14.358 24.2106H11.6948C11.0683 24.2106 10.5604 24.7185 10.5604 25.345V29.4466C10.5604 30.0731 11.0683 30.581 11.6948 30.581H14.358C14.9845 30.581 15.4924 30.0731 15.4924 29.4466V25.345C15.4924 24.7185 14.9845 24.2106 14.358 24.2106Z" fill="#5A5555"/>
<path d="M36.3462 24.2106H33.683C33.0565 24.2106 32.5486 24.7185 32.5486 25.345V29.4466C32.5486 30.0731 33.0565 30.581 33.683 30.581H36.3462C36.9727 30.581 37.4806 30.0731 37.4806 29.4466V25.345C37.4806 24.7185 36.9727 24.2106 36.3462 24.2106Z" fill="#5A5555"/>
<path d="M13.5988 15.6586L10.9388 18.025C10.056 18.81 9.5576 19.8914 9.5576 21.0214V23.167C9.5576 24.5748 10.354 25.881 11.6594 26.6144C12.928 27.327 14.3852 27.704 15.8714 27.704H33.8698C35.0132 27.704 36.1098 27.2858 36.9186 26.5414L37.2012 26.2814C38.0536 25.4966 38.5326 24.432 38.5326 23.3214V20.5014C38.5326 19.21 37.83 18.0042 36.661 17.2902L33.99 15.6586H13.5988Z" fill="#3DBC81"/>
<path d="M36.4714 18.6104H11.6184L14.0784 9.6178C14.1414 9.38717 14.2785 9.18365 14.4686 9.03859C14.6586 8.89353 14.8911 8.81497 15.1302 8.815H32.7934C33.0806 8.81521 33.3598 8.90976 33.5881 9.08411C33.8164 9.25846 33.981 9.50295 34.0568 9.78L36.4714 18.6104Z" fill="#3DBC81"/>
<path d="M10.8978 14.869H9.3632C8.88801 14.869 8.5028 15.2542 8.5028 15.7294V16.1464C8.5028 16.6216 8.88801 17.0068 9.3632 17.0068H10.8978C11.373 17.0068 11.7582 16.6216 11.7582 16.1464V15.7294C11.7582 15.2542 11.373 14.869 10.8978 14.869Z" fill="#3DBC81"/>
<path d="M11.2544 16.0267L13.1479 17.1199L12.8442 17.6459L10.9507 16.5527L11.2544 16.0267Z" fill="#3DBC81"/>
<path d="M37.0642 17.007H38.5988C39.074 17.007 39.4592 16.6218 39.4592 16.1466V15.7296C39.4592 15.2544 39.074 14.8692 38.5988 14.8692H37.0642C36.589 14.8692 36.2038 15.2544 36.2038 15.7296V16.1466C36.2038 16.6218 36.589 17.007 37.0642 17.007Z" fill="#3DBC81"/>
<path d="M37.0117 16.5538L35.1183 17.647L34.8146 17.121L36.708 16.0278L37.0117 16.5538Z" fill="#3DBC81"/>
<path d="M14.6474 9.96518L13.0264 16.56L13.8986 17.2618H34.194L35.094 16.2998L33.2782 9.95278C33.2378 9.81179 33.1527 9.68778 33.0356 9.59948C32.9185 9.51118 32.7759 9.46341 32.6292 9.46338H15.2892C15.1414 9.46294 14.9978 9.51218 14.8814 9.60318C14.765 9.69419 14.6826 9.82169 14.6474 9.96518Z" fill="#E3E3E3"/>
<path d="M15.157 20.8296L14.587 19.8636C14.5198 19.7503 14.4139 19.665 14.2888 19.6236L11.8816 18.82C11.769 18.7825 11.6473 18.7826 11.5347 18.8202C11.4222 18.8579 11.3249 18.9311 11.2576 19.0288L10.6846 19.86C10.6039 19.9772 10.572 20.1211 10.5956 20.2614L10.674 20.7274C10.6931 20.8427 10.7487 20.9489 10.8326 21.0303C10.9164 21.1118 11.0242 21.1642 11.14 21.18L14.6118 21.651C14.6931 21.662 14.7758 21.6547 14.8539 21.6294C14.932 21.6042 15.0033 21.5617 15.0628 21.5052C15.1527 21.4199 15.2109 21.3066 15.2281 21.1839C15.2452 21.0612 15.2201 20.9362 15.157 20.8296Z" fill="white"/>
<path d="M33.2622 20.8296L33.8324 19.8636C33.8996 19.7502 34.0055 19.6649 34.1306 19.6236L36.5376 18.82C36.6502 18.7824 36.772 18.7825 36.8846 18.8202C36.9971 18.8578 37.0944 18.931 37.1618 19.0288L37.7348 19.8608C37.8154 19.9779 37.8474 20.1219 37.8238 20.2622L37.7454 20.7282C37.7261 20.8432 37.6705 20.9491 37.5868 21.0304C37.5031 21.1117 37.3956 21.1641 37.28 21.18L33.8082 21.651C33.7269 21.662 33.6442 21.6546 33.5661 21.6294C33.4881 21.6041 33.4167 21.5617 33.3572 21.5052C33.2673 21.4199 33.2089 21.3067 33.1917 21.184C33.1744 21.0613 33.1993 20.9363 33.2622 20.8296Z" fill="white"/>
<path d="M29.4 26.8218H18.6538C18.4513 26.8218 18.2553 26.7499 18.1008 26.619C17.9462 26.4881 17.8431 26.3066 17.8098 26.1068L17.2932 23.008C17.2728 22.8854 17.2793 22.7598 17.3123 22.64C17.3454 22.5202 17.4041 22.409 17.4844 22.3142C17.5648 22.2194 17.6648 22.1432 17.7776 22.0909C17.8903 22.0387 18.0131 22.0116 18.1374 22.0116H29.9164C30.0407 22.0116 30.1634 22.0387 30.2762 22.091C30.3889 22.1432 30.4889 22.2194 30.5692 22.3143C30.6496 22.4091 30.7083 22.5203 30.7413 22.6401C30.7743 22.7599 30.7808 22.8854 30.7604 23.008L30.2438 26.1068C30.2105 26.3066 30.1075 26.488 29.953 26.619C29.7984 26.7499 29.6025 26.8218 29.4 26.8218Z" fill="#5A5555"/>
<path d="M29.1522 22.7078H18.7726C18.6736 22.7078 18.5934 22.788 18.5934 22.887V22.893C18.5934 22.9919 18.6736 23.0722 18.7726 23.0722H29.1522C29.2512 23.0722 29.3314 22.9919 29.3314 22.893V22.887C29.3314 22.788 29.2512 22.7078 29.1522 22.7078Z" fill="#E3F6ED"/>
<path d="M29.1522 23.7648H18.7726C18.6736 23.7648 18.5934 23.845 18.5934 23.944V23.95C18.5934 24.0489 18.6736 24.1292 18.7726 24.1292H29.1522C29.2512 24.1292 29.3314 24.0489 29.3314 23.95V23.944C29.3314 23.845 29.2512 23.7648 29.1522 23.7648Z" fill="#E3F6ED"/>
<path d="M29.1522 24.822H18.7726C18.6736 24.822 18.5934 24.9023 18.5934 25.0012V25.0072C18.5934 25.1062 18.6736 25.1864 18.7726 25.1864H29.1522C29.2512 25.1864 29.3314 25.1062 29.3314 25.0072V25.0012C29.3314 24.9023 29.2512 24.822 29.1522 24.822Z" fill="#E3F6ED"/>
<path d="M29.1522 25.8792H18.7726C18.6736 25.8792 18.5934 25.9594 18.5934 26.0584V26.0644C18.5934 26.1634 18.6736 26.2436 18.7726 26.2436H29.1522C29.2512 26.2436 29.3314 26.1634 29.3314 26.0644V26.0584C29.3314 25.9594 29.2512 25.8792 29.1522 25.8792Z" fill="#E3F6ED"/>
<path d="M10.829 11.0296C10.3272 10.2322 10.089 10.082 10.5422 9.21297C10.9954 8.34397 9.973 6.29657 9.973 6.29657L5.1 6.43997C5.1 6.43997 5.2918 8.22617 4.3756 9.21357C3.4594 10.201 4.3756 10.6392 4.487 11.1888C4.5984 11.7384 3.1806 11.5792 3.786 12.607C4.3914 13.6348 8.0952 13.4354 8.0952 13.4354L10.3506 12.9894C10.3506 12.9894 11.331 11.827 10.829 11.0296Z" fill="#68003C"/>
<path d="M7.55 4.99237C7.94334 4.9923 8.32912 5.10049 8.66506 5.30509C9.00101 5.50969 9.27416 5.8028 9.4546 6.15232C9.63504 6.50183 9.7158 6.89427 9.68804 7.28663C9.66027 7.67899 9.52506 8.05615 9.2972 8.37677L9.046 9.29677C8.841 10.0484 8.2356 10.54 7.598 10.54H7.533C6.8778 10.54 6.255 10.0348 6.0432 9.25897L5.8032 8.37757C5.57514 8.05697 5.43974 7.67977 5.41184 7.28732C5.38395 6.89487 5.46463 6.50231 5.64504 6.15268C5.82546 5.80304 6.09865 5.50982 6.43466 5.30515C6.77068 5.10048 7.15656 4.99227 7.55 4.99237Z" fill="#F9BB98"/>
<path d="M6.6272 9.5752H8.4726V12.484H6.6272V9.5752Z" fill="#F9BB98"/>
<path d="M7.6916 9.08137H7.6898L7.4318 9.07797C7.42119 9.07797 7.41102 9.07376 7.40352 9.06625C7.39601 9.05875 7.3918 9.04858 7.3918 9.03797C7.3918 9.02736 7.39601 9.01719 7.40352 9.00969C7.41102 9.00218 7.42119 8.99797 7.4318 8.99797L7.6896 9.00137C7.69728 9.00174 7.70493 9.00025 7.7119 8.99701C7.71886 8.99377 7.72494 8.98888 7.7296 8.98277C7.73453 8.97693 7.73803 8.97002 7.73983 8.96259C7.74164 8.95517 7.7417 8.94742 7.74 8.93997L7.5856 8.23097C7.58409 8.22571 7.58368 8.2202 7.58438 8.21477C7.58509 8.20935 7.5869 8.20412 7.5897 8.19942C7.59251 8.19473 7.59625 8.19065 7.60069 8.18746C7.60513 8.18426 7.61018 8.18201 7.61553 8.18085C7.62087 8.17968 7.6264 8.17963 7.63177 8.18068C7.63714 8.18174 7.64224 8.18389 7.64674 8.18699C7.65125 8.1901 7.65507 8.19409 7.65797 8.19873C7.66087 8.20337 7.66278 8.20856 7.6636 8.21397L7.82 8.92317C7.82415 8.94221 7.82399 8.96193 7.81952 8.9809C7.81505 8.99986 7.80638 9.01758 7.79416 9.03276C7.78194 9.04793 7.76647 9.06018 7.7489 9.06859C7.73132 9.077 7.71208 9.08137 7.6926 9.08137H7.6916Z" fill="#262246"/>
<path d="M8.2778 7.95081C8.31388 7.95077 8.34917 7.96143 8.37919 7.98145C8.40921 8.00147 8.43262 8.02994 8.44646 8.06327C8.46029 8.09659 8.46394 8.13327 8.45692 8.16867C8.4499 8.20406 8.43255 8.23658 8.40705 8.26211C8.38155 8.28764 8.34905 8.30503 8.31366 8.31209C8.27827 8.31914 8.24159 8.31554 8.20824 8.30174C8.1749 8.28794 8.14641 8.26456 8.12635 8.23456C8.1063 8.20456 8.0956 8.16929 8.0956 8.13321C8.0956 8.08486 8.11479 8.0385 8.14895 8.0043C8.18312 7.9701 8.22946 7.95086 8.2778 7.95081Z" fill="#262246"/>
<path d="M6.894 7.95081C6.93008 7.95081 6.96534 7.9615 6.99534 7.98155C7.02533 8.00159 7.04871 8.03007 7.06252 8.0634C7.07632 8.09673 7.07994 8.13341 7.0729 8.16879C7.06586 8.20417 7.04849 8.23667 7.02298 8.26218C6.99747 8.28769 6.96497 8.30506 6.92959 8.3121C6.8942 8.31914 6.85753 8.31553 6.8242 8.30172C6.79087 8.28792 6.76238 8.26454 6.74234 8.23454C6.7223 8.20455 6.7116 8.16928 6.7116 8.13321C6.71158 8.10925 6.71628 8.08551 6.72543 8.06337C6.73459 8.04123 6.74802 8.02111 6.76497 8.00417C6.78191 7.98723 6.80203 7.97379 6.82417 7.96464C6.84631 7.95548 6.87004 7.95078 6.894 7.95081Z" fill="#262246"/>
<path d="M8.1914 7.42818C8.244 7.41518 8.5588 7.33698 8.7676 7.53518C8.8366 7.60058 8.8938 7.69718 8.8722 7.72198C8.838 7.76198 8.6676 7.55138 8.4218 7.56698C8.2534 7.57778 8.1472 7.68818 8.043 7.62418C8.0368 7.62038 7.987 7.58898 7.989 7.54958C7.9922 7.47998 8.1564 7.43698 8.1914 7.42818Z" fill="#262246"/>
<path d="M6.4182 7.53518C6.6268 7.33698 6.9418 7.41518 6.9944 7.42818C7.0294 7.43698 7.1944 7.47958 7.197 7.54958C7.1986 7.58958 7.1488 7.62038 7.1428 7.62418C7.0386 7.68818 6.9322 7.57778 6.7638 7.56698C6.5182 7.55138 6.3478 7.76138 6.3136 7.72198C6.292 7.69718 6.3492 7.59998 6.4182 7.53518Z" fill="#262246"/>
<path d="M7.5572 10.5832C7.5334 10.5832 7.5094 10.5832 7.4852 10.5812C7.16757 10.5636 6.86441 10.4426 6.622 10.2366C6.61391 10.2297 6.60888 10.2199 6.60802 10.2093C6.60716 10.1988 6.61053 10.1883 6.6174 10.1802C6.62427 10.1721 6.63407 10.1671 6.64465 10.1662C6.65522 10.1653 6.66571 10.1687 6.6738 10.1756C6.90277 10.3702 7.18913 10.4847 7.4892 10.5014C7.9658 10.5252 8.3066 10.2888 8.4308 10.1858C8.439 10.179 8.44955 10.1757 8.46015 10.1767C8.47074 10.1777 8.48051 10.1829 8.4873 10.1911C8.49409 10.1993 8.49735 10.2098 8.49635 10.2204C8.49536 10.231 8.4902 10.2408 8.482 10.2476C8.3568 10.3512 8.0244 10.5832 7.5572 10.5832Z" fill="#68003C"/>
<path d="M7.5 11.3822L3.6716 12.0138C3.23591 12.0857 2.8367 12.301 2.53726 12.6256C2.23782 12.9501 2.05529 13.3653 2.0186 13.8054L1.0494 25.4304L4.3042 24.9846L5.3884 14.2114L7.5 11.3822Z" fill="#F9BB98"/>
<path d="M6.9812 11.453L10.9708 11.9828C11.3992 12.0397 11.8038 12.2127 12.1409 12.4831C12.4779 12.7535 12.7346 13.111 12.883 13.5168L16.3364 22.96L14.2564 25.9012L9.6682 15.1648C8.7726 13.9276 7.87693 12.6903 6.9812 11.453Z" fill="#F9BB98"/>
<path d="M23.148 18.6812L14.883 23.62C14.1188 24.3108 13.9084 25.311 14.257 25.9012C14.697 26.6472 16.1504 26.9412 17.2594 25.9924C19.6222 24.1219 21.9849 22.2512 24.3476 20.3804C23.9479 19.8144 23.548 19.248 23.148 18.6812Z" fill="#F9BB98"/>
<path d="M2.6728 12.5772L7.5 11.3822L12.1368 12.2422V26.3912L4.632 26.6312C3.9792 21.9464 3.32613 17.2617 2.6728 12.5772Z" fill="#ABE4C9"/>
<path d="M4.5422 25.0134C3.4182 26.7097 2.74508 28.6646 2.5864 30.6934L2.0974 35.33H15.0054L12.0718 25.3746L4.5422 25.0134Z" fill="#ABE4C9"/>
<path d="M8.6156 10.9698H6.4842C6.3786 10.9698 6.293 11.0554 6.293 11.161V11.7658C6.293 11.8714 6.3786 11.957 6.4842 11.957H8.6156C8.7212 11.957 8.8068 11.8714 8.8068 11.7658V11.161C8.8068 11.0554 8.7212 10.9698 8.6156 10.9698Z" fill="#ABE4C9"/>
<path d="M7.6486 11.2694L4.1624 11.838C3.54098 11.9393 2.96516 12.2275 2.51162 12.6642C2.05807 13.1009 1.74832 13.6655 1.6236 14.2826L0.548201 19.6058L4.2882 20.048L6.0334 13.44L7.6486 11.2694Z" fill="#ABE4C9"/>
<path d="M7.6486 11.453L11.0564 11.8434C11.544 11.8991 12.0076 12.0853 12.3983 12.3824C12.789 12.6795 13.0924 13.0764 13.2764 13.5314L15.2254 18.3496L11.8316 20.2318L10.4932 17.0778L7.6486 11.453Z" fill="#ABE4C9"/>
<path d="M13.2376 15.0336C12.4189 14.8708 11.6165 14.6348 10.84 14.3284C10.1265 14.5757 9.40093 14.7865 8.666 14.96C7.69807 15.1881 6.71583 15.3505 5.726 15.4462L6.2564 21.029C6.4176 22.727 7.3426 24.243 8.747 25.1108L10.827 26.3964L13.2102 24.9318C14.439 24.1768 15.249 22.853 15.3902 21.3696L15.967 15.298C15.0507 15.3007 14.1364 15.2121 13.2376 15.0336Z" fill="white"/>
<path d="M9.0384 24.6434C7.785 23.8688 6.9502 22.498 6.8058 20.9768L6.3258 15.9328C7.15604 15.832 7.98009 15.6855 8.7942 15.494C9.4776 15.3328 10.1618 15.1374 10.8308 14.9124C11.5788 15.1955 12.3489 15.4163 13.1332 15.5724C13.8698 15.7184 14.6168 15.8065 15.3672 15.8358L14.8472 21.3174C14.7232 22.625 14.0052 23.8012 12.9272 24.4638L10.8322 25.7514L9.0384 24.6434Z" fill="#3DBC81"/>
<path d="M13.143 17.8982L10.4574 20.677L9.1734 19.2924L10.38 21.978L13.143 17.8982Z" fill="#C7EDDB"/>
<path d="M4.3228 17.745C4.74067 16.945 5.1584 16.145 5.576 15.345C5.6426 15.247 5.9302 14.8468 6.4682 14.732C6.70957 14.6821 6.95977 14.6959 7.1942 14.772L8.7 15.422C8.8832 15.538 8.9308 15.7556 8.8464 15.885C8.7898 15.9716 8.676 16.0158 8.5578 16.0084L7.741 15.7894L8.5566 16.24C8.7354 16.3242 8.8014 16.542 8.7118 16.7C8.63 16.8444 8.437 16.9052 8.2756 16.8256L7.3614 16.228L8.2698 16.969C8.3772 17.0908 8.3772 17.2676 8.2816 17.3752C8.24134 17.418 8.18951 17.4482 8.13241 17.462C8.07532 17.4759 8.01542 17.4729 7.96 17.4534L7.1702 16.94L7.8634 17.5304C7.89203 17.595 7.89964 17.667 7.88514 17.7362C7.87064 17.8053 7.83477 17.8682 7.7826 17.9159C7.73043 17.9636 7.6646 17.9937 7.5944 18.0019C7.5242 18.0101 7.45319 17.9961 7.3914 17.9618L7.003 17.663L6.66 18.4584C6.60257 18.5911 6.50956 18.7054 6.39126 18.7887C6.27295 18.8719 6.13395 18.9208 5.9896 18.93L5.3548 18.97L4.3228 17.745Z" fill="#F9BB98"/>
<path d="M7.74 15.8294C7.73434 15.8294 7.72875 15.8281 7.7236 15.8258L6.835 15.42C6.82532 15.4156 6.81779 15.4075 6.81405 15.3976C6.81032 15.3876 6.8107 15.3766 6.8151 15.3669C6.8195 15.3572 6.82757 15.3497 6.83753 15.3459C6.84749 15.3422 6.85852 15.3426 6.8682 15.347L7.7574 15.7524C7.76572 15.7562 7.77248 15.7627 7.77658 15.7709C7.78067 15.779 7.78185 15.7883 7.77991 15.7973C7.77797 15.8062 7.77303 15.8142 7.76591 15.8199C7.7588 15.8257 7.74994 15.8288 7.7408 15.8288L7.74 15.8294Z" fill="#68003C"/>
<path d="M7.498 16.38C7.49176 16.38 7.48561 16.3785 7.48 16.3758L6.587 15.9298C6.57784 15.9249 6.57095 15.9166 6.56779 15.9067C6.56464 15.8968 6.56546 15.8861 6.57009 15.8767C6.57472 15.8674 6.58279 15.8603 6.59259 15.8568C6.60239 15.8534 6.61315 15.8539 6.6226 15.8582L7.5158 16.3042C7.52529 16.3089 7.53252 16.3172 7.53589 16.3273C7.53927 16.3373 7.53852 16.3483 7.5338 16.3578C7.53049 16.3645 7.52538 16.3701 7.51906 16.374C7.51274 16.3779 7.50544 16.38 7.498 16.38Z" fill="#68003C"/>
<path d="M7.1702 16.98C7.16318 16.9799 7.1563 16.978 7.1502 16.9746L6.48 16.5818C6.47171 16.5761 6.46588 16.5674 6.46367 16.5576C6.46147 16.5478 6.46305 16.5375 6.4681 16.5288C6.47315 16.5201 6.48129 16.5136 6.49092 16.5106C6.50054 16.5077 6.51092 16.5084 6.52 16.5128L7.1894 16.9052C7.19691 16.9096 7.20275 16.9164 7.20604 16.9245C7.20933 16.9326 7.20989 16.9415 7.20762 16.95C7.20535 16.9584 7.20039 16.9659 7.19349 16.9712C7.18659 16.9766 7.17813 16.9795 7.1694 16.9796L7.1702 16.98Z" fill="#68003C"/>
<path d="M5.8028 8.37679C5.82947 8.10706 5.85613 7.83726 5.8828 7.56739C6.0028 7.53679 6.6076 7.36939 6.9732 6.75879C7.2976 6.21659 7.2214 5.67999 7.197 5.53999C7.3488 5.84979 7.8386 6.74539 8.7896 6.99799C8.92244 7.03315 9.05857 7.05447 9.1958 7.06159V8.55999H9.7184C10.2184 6.95719 10.2184 5.52259 9.5464 5.03459C9.4076 4.93459 9.231 4.86699 9.148 4.83559C8.2956 4.51239 7.495 4.73979 7.1244 4.87559C6.9798 4.86839 5.8966 4.75759 5.3478 5.56859C4.799 6.37959 5.2922 8.42979 5.2922 8.42979L5.8028 8.37679Z" fill="#68003C"/>
<path d="M9.0478 8.20599C9.192 7.93079 9.4994 7.80739 9.7344 7.93039C9.9694 8.05339 10.0434 8.37639 9.8994 8.65159C9.7554 8.92679 9.448 9.05039 9.2128 8.92719C8.9776 8.80399 8.9038 8.48119 9.0478 8.20599Z" fill="#F9BB98"/>
<path d="M9.358 8.77299C9.34855 8.77297 9.33941 8.76961 9.3322 8.76349C9.325 8.75738 9.32019 8.74891 9.31863 8.73958C9.31707 8.73026 9.31887 8.72069 9.32369 8.71256C9.32852 8.70444 9.33607 8.69828 9.345 8.69519C9.38101 8.68335 9.41237 8.66045 9.4346 8.62974C9.45683 8.59904 9.4688 8.5621 9.4688 8.52419C9.4688 8.48628 9.45683 8.44934 9.4346 8.41864C9.41237 8.38793 9.38101 8.36503 9.345 8.35319C9.33605 8.35009 9.32849 8.34392 9.32367 8.33578C9.31884 8.32763 9.31706 8.31804 9.31865 8.3087C9.32023 8.29936 9.32507 8.29089 9.33232 8.28479C9.33956 8.2787 9.34873 8.27536 9.3582 8.27539H9.7182C9.72881 8.27539 9.73898 8.27961 9.74649 8.28711C9.75399 8.29461 9.7582 8.30478 9.7582 8.31539C9.7582 8.326 9.75399 8.33617 9.74649 8.34368C9.73898 8.35118 9.72881 8.35539 9.7182 8.35539H9.486C9.53052 8.40631 9.55329 8.47266 9.5494 8.54019C9.54601 8.59208 9.52719 8.64176 9.49537 8.68289C9.46355 8.72401 9.42017 8.75469 9.3708 8.77099C9.36667 8.77235 9.36235 8.77302 9.358 8.77299Z" fill="#262246"/>
<path d="M5.3722 7.93039C5.6074 7.80739 5.9146 7.93039 6.0588 8.20599C6.203 8.48159 6.129 8.80419 5.8938 8.92719C5.6586 9.05019 5.3514 8.92719 5.2074 8.65159C5.0634 8.37599 5.137 8.05339 5.3722 7.93039Z" fill="#F9BB98"/>
<path d="M5.7486 8.77301C5.74419 8.77301 5.7398 8.77234 5.7356 8.77101C5.68625 8.75463 5.64291 8.7239 5.61112 8.68275C5.57934 8.6416 5.56057 8.59189 5.5572 8.54001C5.55333 8.47248 5.5761 8.40614 5.6206 8.35521H5.3884C5.37779 8.35521 5.36762 8.35099 5.36012 8.34349C5.35261 8.33599 5.3484 8.32582 5.3484 8.31521C5.3484 8.3046 5.35261 8.29442 5.36012 8.28692C5.36762 8.27942 5.37779 8.27521 5.3884 8.27521H5.7484C5.75785 8.27523 5.76699 8.27859 5.7742 8.28471C5.7814 8.29082 5.78621 8.29929 5.78777 8.30862C5.78933 8.31794 5.78753 8.32751 5.78271 8.33564C5.77788 8.34376 5.77033 8.34992 5.7614 8.35301C5.72539 8.36484 5.69403 8.38775 5.6718 8.41845C5.64957 8.44916 5.6376 8.4861 5.6376 8.52401C5.6376 8.56192 5.64957 8.59886 5.6718 8.62956C5.69403 8.66027 5.72539 8.68317 5.7614 8.69501C5.77033 8.6981 5.77788 8.70425 5.78271 8.71238C5.78753 8.7205 5.78933 8.73008 5.78777 8.7394C5.78621 8.74872 5.7814 8.75719 5.7742 8.76331C5.76699 8.76942 5.75785 8.77279 5.7484 8.77281L5.7486 8.77301Z" fill="#262246"/>
<path d="M7.1086 9.26819C7.29015 9.33554 7.48145 9.37289 7.675 9.37879C7.78941 9.38225 7.90389 9.37455 8.0168 9.35579C7.99684 9.46923 7.93482 9.57098 7.84314 9.64071C7.75146 9.71044 7.63685 9.74303 7.52219 9.73197C7.40754 9.72091 7.30127 9.66701 7.2246 9.58105C7.14794 9.49508 7.10651 9.38336 7.1086 9.26819Z" fill="white"/>
<path d="M3.6354 20.0108C3.62513 20.0108 3.61525 20.0069 3.6078 19.9998C3.60035 19.9927 3.59591 19.9831 3.5954 19.9728L3.3 14.14C3.29946 14.1294 3.30313 14.1191 3.31022 14.1112C3.3173 14.1033 3.32722 14.0986 3.3378 14.098C3.34306 14.0977 3.34831 14.0985 3.35327 14.1003C3.35822 14.102 3.36278 14.1048 3.36668 14.1083C3.37059 14.1118 3.37375 14.1161 3.376 14.1208C3.37825 14.1256 3.37954 14.1308 3.3798 14.136L3.6748 19.968C3.67535 19.9786 3.67167 19.989 3.66459 19.9968C3.6575 20.0047 3.64758 20.0094 3.637 20.01L3.6354 20.0108Z" fill="#68003C"/>
<path d="M22.7076 19.3304L23.1544 17.9278C23.2163 17.734 23.336 17.5637 23.4976 17.44L24.9138 16.356C25.18 16.2142 25.4738 16.326 25.5518 16.5184C25.6066 16.653 25.5574 16.8288 25.4318 16.9566L24.54 17.6298L26.0536 17.3386L27.3762 16.2386C27.5012 16.1386 27.6678 16.1586 27.7426 16.2546C27.795 16.3212 27.7996 16.4214 27.7586 16.5094L26.691 17.7842L28.1728 16.7962C28.3286 16.6884 28.5286 16.7332 28.607 16.86C28.6658 16.9552 28.6528 17.0916 28.5712 17.1946L27.0574 18.4056L28.5712 17.7044C28.703 17.6506 28.8512 17.6904 28.9256 17.7922C29.017 17.9156 28.9876 18.1122 28.842 18.2144L27.2486 19.0908L28.7146 18.7562C28.8924 18.7522 29.0322 18.8952 29.0292 19.0508C29.0266 19.182 28.923 19.3032 28.7782 19.3298L26.8334 19.978C26.8234 19.9814 26.8134 19.9842 26.8032 19.9866L23.52 20.78L22.7076 19.3304Z" fill="#F9BB98"/>
<path d="M26.2288 19.6094C26.2222 19.6094 26.2157 19.6077 26.21 19.6046C26.2042 19.6015 26.1992 19.597 26.1956 19.5915C26.192 19.586 26.1897 19.5797 26.1891 19.5732C26.1885 19.5666 26.1895 19.56 26.192 19.554C26.2494 19.4158 26.4178 18.9282 26.1694 18.4484C25.917 17.9604 25.3494 17.6912 24.7512 17.771C24.7806 18.0669 24.7454 18.3657 24.6478 18.6466C24.5503 18.9276 24.3929 19.1839 24.1864 19.398C24.179 19.4056 24.1689 19.41 24.1583 19.4102C24.1477 19.4104 24.1374 19.4063 24.1298 19.399C24.1222 19.3916 24.1178 19.3815 24.1176 19.3709C24.1174 19.3603 24.1214 19.35 24.1288 19.3424C24.3315 19.1323 24.485 18.8797 24.5782 18.603C24.6714 18.3263 24.7019 18.0323 24.6676 17.7424C24.6664 17.7321 24.6692 17.7218 24.6754 17.7136C24.6816 17.7053 24.6908 17.6998 24.701 17.6982C25.348 17.5966 25.9668 17.8838 26.241 18.4124C26.5052 18.9228 26.327 19.4394 26.2662 19.5856C26.263 19.5928 26.2578 19.5989 26.2511 19.6031C26.2444 19.6074 26.2367 19.6095 26.2288 19.6094Z" fill="#68003C"/>
<path d="M4.3362 17.6776C3.255 20.1835 2.17373 22.6891 1.0924 25.1946C0.844801 26.203 1.4524 27.2392 2.4504 27.5162C3.4484 27.7932 4.498 27.22 4.808 26.2328C5.2376 23.5909 5.66713 20.9493 6.0966 18.3078L4.3362 17.6776Z" fill="#F9BB98"/>
<path d="M1.38 24.5688C1.3745 24.5688 1.36906 24.5678 1.364 24.5656C1.35441 24.5612 1.34693 24.5533 1.34319 24.5434C1.33944 24.5336 1.33974 24.5226 1.344 24.513L2.85 21.02C2.85431 21.0104 2.86223 21.0029 2.87203 20.9991C2.88183 20.9953 2.89274 20.9955 2.90239 20.9997C2.91203 21.0039 2.91965 21.0117 2.92358 21.0214C2.92751 21.0312 2.92745 21.0421 2.9234 21.0518L1.4164 24.5438C1.41346 24.5511 1.40844 24.5573 1.40196 24.5618C1.39549 24.5662 1.38785 24.5687 1.38 24.5688Z" fill="#68003C"/>
</svg>
