<svg width="40" height="40" viewBox="0 0 40 40" fill="none" xmlns="http://www.w3.org/2000/svg">
<path d="M17.2353 33.5882C16.8824 34.4117 15.9412 34.8235 15.0588 34.5882C12.5294 33.9411 5.11765 31.9411 2.58824 31.2941C1.47059 31 0.941176 29.8235 1.35294 28.8235C4.52941 21.9411 7.41177 11.7058 7.47059 4.11761C7.47059 2.99996 8.47059 2.17644 9.52941 2.35291C13.8235 2.99996 18 3.64702 22.2941 4.47055C23.1765 4.64702 23.8235 5.41173 23.7647 6.29408C23.5294 14.647 20.5294 25.8823 17.2353 33.5882Z" fill="#32CE5A"/>
<path d="M3.76471 28.0588C4.58824 28.1764 5.17647 29.1176 4.88235 29.8823C8 30.7647 11.1765 31.5882 14.2353 32.4117C14.5294 31.5882 15.5882 31.0588 16.3529 31.4705C19.2353 23.9411 21.2353 15.9999 22.2353 8.05877C21.7647 8.29406 21.1176 8.11759 20.8235 7.70583C20.4706 7.29406 20.4706 6.64701 20.7647 6.23524C17.4706 5.8823 14.1176 5.23524 10.8824 4.52936C11.2353 4.82348 10.9412 5.52936 10.7647 5.94112C10.5882 6.35289 10.1176 6.64701 9.64706 6.58818C9 14.0588 7.05882 21.3529 3.76471 28.0588Z" fill="#1FB64A"/>
<path d="M19.1166 20.0985C19.6333 17.1225 17.6136 14.2866 14.6056 13.7644C11.5976 13.2422 8.74035 15.2314 8.22371 18.2074C7.70706 21.1834 9.7267 24.0193 12.7347 24.5415C15.7427 25.0637 18.6 23.0745 19.1166 20.0985Z" fill="#32CE5A"/>
<path d="M15.6471 21.0588C15.7059 20.7059 16.0588 20.4117 16.1176 19.7647C16.2353 18.9411 15.8824 18.5294 15.4118 18.4706C14.8824 18.4117 14.5294 18.647 14.1176 19.4117C13.5294 20.4117 12.8824 20.8823 12.1176 20.7647C10.6471 20.5294 10.2353 18.8235 10.9412 17.4117C11.0588 17.2353 11.1765 16.8823 11.4118 16.8823C11.6471 16.8823 11.8824 17.0588 11.9412 17.2353C12 17.4117 11.7647 17.647 11.7059 17.8235C11.2941 18.5882 11.3529 19.5882 12.1176 19.7059C12.6471 19.7647 12.8824 19.4706 13.3529 18.7059C13.9412 17.7059 14.5294 17.2353 15.4706 17.4117C17.1176 17.647 17.3529 19.5882 16.5882 21.0588C16.4706 21.3529 16.2941 21.7059 15.8824 21.5882C15.7059 21.4706 15.5882 21.2941 15.6471 21.0588Z" fill="white"/>
<path d="M10.8235 18.5882C10.5882 18.5294 10.3529 18.4706 10.1176 18.4117C9.94118 18.3529 9.88235 18.3529 9.88235 18.1176C9.88235 18 9.94118 17.7647 10.0588 17.7058C10.1176 17.647 10.1176 17.7058 11 17.9411" fill="white"/>
<path d="M16.4706 20.3529L17.1765 20.5294C17.3529 20.5882 17.4118 20.5882 17.5294 20.4117C17.5882 20.2941 17.6471 20.0588 17.5882 19.9412C17.5294 19.8823 17.5294 19.8823 16.7059 19.647" fill="white"/>
<path d="M17.1968 10.9995C17.4401 9.98899 16.8181 8.97262 15.8076 8.72936C14.7972 8.48609 13.7808 9.10805 13.5375 10.1185C13.2943 11.129 13.9162 12.1454 14.9267 12.3887C15.9372 12.6319 16.9536 12.01 17.1968 10.9995Z" fill="#32CE5A"/>
<path d="M12.7661 27.8981C13.0018 26.9192 12.3993 25.9346 11.4204 25.6989C10.4414 25.4632 9.45684 26.0658 9.22118 27.0447C8.98551 28.0236 9.58803 29.0082 10.5669 29.2438C11.5459 29.4795 12.5305 28.877 12.7661 27.8981Z" fill="#32CE5A"/>
<path d="M16.4706 34.4706C16.0588 34.7058 15.5882 34.7647 15.1176 34.647C12.1176 33.8235 9.11765 33.0588 6.11765 32.2353C4.82353 31.1764 3.52941 29.7058 3.76471 28.0588C3.94118 26.9411 4.82353 26.0588 5.64706 25.2353C15.8235 15.2353 19.6471 5.94114 20.8824 5.23526C21.8824 4.64702 22.1765 5.94114 22.2941 6.64702C22.4118 7.52938 22.1176 8.41173 21.7647 9.29408C18.8235 16.8235 11 22.2353 15.6471 32.1176C15.9412 32.7647 16.4118 33.647 16.4706 34.4706Z" fill="black"/>
<path d="M5.64706 26.8823C11.0588 21.5882 17.4706 13.1176 20.2941 6.1176C20.7059 5.1176 21.8824 4.70584 22.8824 5.23525C26.6471 7.3529 30.2941 9.52937 34 11.8235C34.7647 12.2941 35.0588 13.2353 34.7059 14.0588C31.4118 21.7647 24.5294 31.1176 18.6471 37.1176C18 37.7647 17 37.8235 16.2941 37.2941C12.8235 34.7058 9.35294 32.1764 5.88235 29.647C4.94118 28.9411 4.82353 27.647 5.64706 26.8823Z" fill="#32CE5A"/>
<path d="M8.11765 26.9999C8.82353 27.4117 9 28.5293 8.52941 29.1176C11.1176 31.0588 13.7647 32.9411 16.3529 34.8823C16.8824 34.2352 18.1176 34.1176 18.6471 34.7646C24.0588 28.8823 28.8235 22.2352 32.5882 15.1176C32.0588 15.1764 31.5294 14.7646 31.3529 14.2352C31.1765 13.7058 31.4118 13.1176 31.8235 12.8823C28.8824 11.294 26 9.52934 23.2353 7.70581C23.4118 8.11758 22.9412 8.70581 22.5882 8.99993C22.2941 9.29405 21.7059 9.41169 21.2941 9.1764C18.0588 15.8823 13.6471 21.9411 8.11765 26.9999Z" fill="#1FB64A"/>
<path d="M25.332 25.2181C26.894 22.6319 26.0412 19.2554 23.4271 17.6766C20.8131 16.0978 17.4277 16.9145 15.8656 19.5007C14.3036 22.087 15.1565 25.4634 17.7705 27.0422C20.3846 28.6211 23.77 27.8044 25.332 25.2181Z" fill="#32CE5A"/>
<path d="M22.6471 23.7647C23.0588 23.0588 22.8824 22.5294 22.4706 22.2941C22 22 21.5882 22.1764 20.8824 22.7058C20 23.4706 19.1765 23.5882 18.5294 23.2353C17.2353 22.4706 17.4706 20.7059 18.6471 19.7059C18.8235 19.5294 19.0588 19.2941 19.2941 19.4117C19.4706 19.4706 19.6471 19.7059 19.6471 19.9411C19.6471 20.1176 19.3529 20.2941 19.2353 20.4117C18.5882 21 18.2353 21.8823 18.9412 22.2941C19.4118 22.5294 19.7647 22.3529 20.4118 21.8235C21.2941 21.1176 22.0588 20.8823 22.8235 21.3529C24.2353 22.1764 23.7647 24.0588 22.5882 25.1764C22.3529 25.4117 22.0588 25.7058 21.7647 25.4706C21.6471 25.4117 21.5882 25.2941 21.5882 25.1764C21.5882 24.647 22.2941 24.4117 22.6471 23.7647Z" fill="white"/>
<path d="M18.1176 20.7647C17.9412 20.647 17.7059 20.4706 17.5294 20.3529C17.4118 20.2353 17.3529 20.1765 17.4118 20C17.4706 19.8823 17.5882 19.7059 17.7059 19.7059C17.8235 19.7059 17.7647 19.7059 18.4706 20.2353" fill="white"/>
<path d="M22.7647 24.4706C22.9412 24.5882 23.1765 24.7647 23.3529 24.8823C23.4706 25 23.5294 25.0588 23.7059 24.8823C23.8235 24.8235 23.9412 24.647 23.9412 24.4706C23.9412 24.3529 23.9412 24.4117 23.1765 23.8823" fill="white"/>
<path d="M26.8403 15.9991C27.4339 15.1456 27.2232 13.9724 26.3697 13.3788C25.5162 12.7852 24.3431 12.9959 23.7495 13.8494C23.1559 14.7029 23.3666 15.8761 24.2201 16.4697C25.0736 17.0633 26.2467 16.8526 26.8403 15.9991Z" fill="#32CE5A"/>
<path d="M16.6249 30.1417C17.1999 29.3149 16.9958 28.1784 16.169 27.6033C15.3422 27.0283 14.2057 27.2324 13.6306 28.0592C13.0556 28.8861 13.2597 30.0225 14.0865 30.5976C14.9134 31.1726 16.0498 30.9685 16.6249 30.1417Z" fill="#32CE5A"/>
<path d="M14.2941 36.1176C14.0588 35.9412 14.3529 35.5882 14.5882 35.8235C15.5882 36.7647 16.7647 37.647 17.9412 37.3529C18.6471 37.1765 19.2353 36.5882 19.7647 35.8235C25.1176 29.2941 30.6471 22.4706 34.1176 14.5882C34.3529 14 34.5882 13.4706 34.5294 12.9412C34.2941 11.4117 31.9412 10.8235 29.4118 9.41175C29.1765 9.2941 29.3529 8.88233 29.6471 8.99998C32.3529 10.5294 34.7059 11.0588 34.9412 12.8823C35.0588 13.5294 34.7647 14.1765 34.5294 14.7647C31 22.7059 25.4706 29.5294 20.1176 36.1176C19.6471 36.7059 19 37.5294 18.0588 37.7647C16.6471 38.1176 15.3529 37.1176 14.2941 36.1176Z" fill="black"/>
<path d="M3.52941 21.7647C5.58824 16.8823 6.76471 11.6471 6.88235 6.35294C6.88235 5.52941 6.94118 4.64705 7.17647 3.88235C7.35294 3.35294 7.82353 2.47058 8.47059 2.17647C9.05882 1.94117 9.94118 2.11764 10.7059 2.23529C12.1176 2.47058 12.3529 2.41176 16.7059 3.47058C16.8235 3.52941 16.8824 3.64705 16.8824 3.7647C16.8824 3.88235 16.7059 3.94117 16.5882 3.94117C14.8235 3.47058 13 3.05882 11.1765 2.82352C10.4706 2.70588 9.29412 2.41176 8.64706 2.64705C8.23529 2.82352 7.76471 3.47058 7.58824 4.05882C6.94118 5.94117 8 12.3529 3.88235 22C3.82353 22.1765 3.47059 22.0588 3.52941 21.7647Z" fill="black"/>
<path d="M38.2941 34.4117C37.1765 33.9999 36.1176 33.4705 35.0588 32.8823C34.9412 32.8235 34.8235 32.8823 34.8235 33.0588C34.8235 34.1764 34.8824 35.3529 35.0588 36.4705C35.0588 36.647 34.8824 36.7647 34.7647 36.5882C32.5882 33.7058 31.5882 29.9411 31.8235 26.5294C31.8235 26.4705 31.8235 26.4705 31.8235 26.4117C31.8824 26.3529 34 22.0588 33.8824 22.3529C34.3529 26.7058 35.3529 31.1176 38.4706 34.1176C38.5882 34.2352 38.4706 34.4705 38.2941 34.4117Z" fill="#EF3A3E"/>
<path d="M32.4118 37.7058C32.2353 38.0588 31.7059 38 31.7059 37.5882C31.5882 36.4117 31.2353 35.2353 30.6471 34.1764C29.8235 35.647 28.2353 36.647 26.5882 36.7647C26.2941 36.7647 26.1176 36.4705 26.2353 36.1764C28 33.2941 29.1765 30 29.5882 26.3529L32.5882 24.8235C32.8235 26.4117 33 28.1176 33 29.7058C33.1176 31.5882 33.1176 36 32.4118 37.7058Z" fill="#FC5B63"/>
<path d="M35.5882 29.8235C34.7647 29.9411 33.7647 29.8823 33 29.7058C31.6471 29.4705 30.2353 28.8823 29.3529 27.8235C29.4118 27.4117 29.4706 26.9999 29.5294 26.5294C31.0588 26.9411 32.8823 27.1764 34.7059 27.1764C35 28.2941 35.3529 29.2352 35.5882 29.8235Z" fill="black"/>
<path d="M32.7059 28.4706C36.0521 28.4706 38.7647 25.7579 38.7647 22.4117C38.7647 19.0655 36.0521 16.3529 32.7059 16.3529C29.3597 16.3529 26.6471 19.0655 26.6471 22.4117C26.6471 25.7579 29.3597 28.4706 32.7059 28.4706Z" fill="#FFDC00"/>
<path d="M32.7059 26.1764C34.7851 26.1764 36.4706 24.4909 36.4706 22.4117C36.4706 20.3325 34.7851 18.647 32.7059 18.647C30.6267 18.647 28.9412 20.3325 28.9412 22.4117C28.9412 24.4909 30.6267 26.1764 32.7059 26.1764Z" fill="#FCE67A"/>
<path d="M34.2353 23.647C33 23.3529 33 23.3529 32.9412 23.4117L32.0588 24.2353C32 24.2941 31.8235 24.2353 31.8235 24.1176C31.7059 22.9412 31.7647 22.9412 31.6471 22.8823L30.5882 22.2941C30.4706 22.2353 30.4706 22.0588 30.5882 22.0588C31.7647 21.5294 31.7059 21.5882 31.7647 21.4706L32 20.2941C32 20.1764 32.1765 20.1176 32.2353 20.2353C33.0588 21.1764 33.0588 21.1764 33.1176 21.1764L34.2941 21.0588C34.4118 21.0588 34.4706 21.1764 34.4118 21.2941C33.7647 22.3529 33.7647 22.3529 33.8235 22.4706L34.3529 23.5294C34.4706 23.5882 34.3529 23.7059 34.2353 23.647Z" fill="white"/>
<path d="M28.1765 26.7647C25.5882 24.4117 25.5882 20.3529 28.0588 18C28.2941 17.8235 28.5882 18.1176 28.3529 18.2941C26 20.5294 26.0588 24.2941 28.4118 26.4117C28.7059 26.647 28.3529 27 28.1765 26.7647Z" fill="black"/>
<path d="M33.8235 25.9411C35.5294 25.3529 36.5882 23.5882 36.1765 21.7647C36.1765 21.647 36.2353 21.5294 36.3529 21.5294C36.4706 21.5294 36.5882 21.5882 36.5882 21.7058C37 23.7058 35.8235 25.7058 33.9412 26.3529C33.7059 26.4705 33.5294 26.0588 33.8235 25.9411Z" fill="black"/>
<path d="M32.2353 8.58823L32 7.64705C31.9412 7.35293 32.3529 7.29411 32.4118 7.5294L32.6471 8.47058C32.7059 8.7647 32.2941 8.88234 32.2353 8.58823Z" fill="black"/>
<path d="M33.8824 8.58825L34.3529 7.23531C34.4706 6.94119 34.8824 7.11766 34.7647 7.35295L34.2941 8.7059C34.1765 9.00001 33.7647 8.88237 33.8824 8.58825Z" fill="black"/>
<path d="M35.2353 9.64708L35.8235 9.00002C36 8.76472 36.3529 9.05884 36.1765 9.29413L35.5882 9.94119C35.3529 10.1177 35.0588 9.82355 35.2353 9.64708Z" fill="black"/>
</svg>
